<?xml version="1.0" encoding="UTF-8" standalone="no"?>
<svg
   xmlns:dc="http://purl.org/dc/elements/1.1/"
   xmlns:cc="http://creativecommons.org/ns#"
   xmlns:rdf="http://www.w3.org/1999/02/22-rdf-syntax-ns#"
   xmlns:svg="http://www.w3.org/2000/svg"
   xmlns="http://www.w3.org/2000/svg"
   xmlns:sodipodi="http://sodipodi.sourceforge.net/DTD/sodipodi-0.dtd"
   xmlns:inkscape="http://www.inkscape.org/namespaces/inkscape"
   version="1.1"
   id="svg2"
   xml:space="preserve"
   width="1333.3333"
   height="1333.3333"
   viewBox="0 0 1333.3333 1333.3333"
   sodipodi:docname="경상남도A.ai"><metadata
     id="metadata8"><rdf:RDF><cc:Work
         rdf:about=""><dc:format>image/svg+xml</dc:format><dc:type
           rdf:resource="http://purl.org/dc/dcmitype/StillImage" /></cc:Work></rdf:RDF></metadata><defs
     id="defs6"><clipPath
       clipPathUnits="userSpaceOnUse"
       id="clipPath18"><path
         d="M 0,1000 H 1000 V 0 H 0 Z"
         id="path16" /></clipPath></defs><sodipodi:namedview
     pagecolor="#ffffff"
     bordercolor="#666666"
     borderopacity="1"
     objecttolerance="10"
     gridtolerance="10"
     guidetolerance="10"
     inkscape:pageopacity="0"
     inkscape:pageshadow="2"
     inkscape:window-width="640"
     inkscape:window-height="480"
     id="namedview4" /><g
     id="g10"
     inkscape:groupmode="layer"
     inkscape:label="경상남도A"
     transform="matrix(1.3333333,0,0,-1.3333333,0,1333.3333)"><g
       id="g12"><g
         id="g14"
         clip-path="url(#clipPath18)"><g
           id="g20"
           transform="translate(858.6016,480.1807)"><path
             d="m 0,0 -4.082,-4.762 -0.682,-5.447 -1.888,-5.67 -4.284,-6.117 -8.423,-1.805 -4.143,2.367 -2.82,2.822 h -3.715 l -1.635,-4.087 v -3.892 l -3.279,-6.558 v -3.553 l -2.41,-1.205 -2.836,-7.09 v -2.161 c 0,-1.185 -1.16,-1.629 -1.283,-1.673 l -3.35,-1.983 -2.75,-0.688 -5.733,-5.733 -3.427,0.571 -5.088,0.014 -3.08,-2.309 -2.045,-4.098 -2.377,-4.155 -4.606,-0.576 -3.996,0.666 -2.5,-0.625 -7.699,8.632 -6.478,5.007 -5.129,5.129 -0.95,6.624 -1.572,7.334 -5.812,3.17 c -0.78,0.426 -1.399,0.781 -1.887,1.074 h 0.961 l -2.957,1.848 c -1.451,0.907 -3.988,2.698 -4.617,3.642 -0.44,0.658 -1.028,1.289 -1.598,1.898 -0.738,0.792 -1.504,1.612 -1.728,2.289 -0.627,1.881 -3.95,2.917 -4.543,3.084 l -5.411,1.967 -4.035,1.015 -0.242,0.029 c -1.648,0 -4.623,0.12 -5.586,0.441 -0.846,0.282 -2.93,1.362 -4.443,2.174 -0.436,0.234 -0.83,0.449 -1.127,0.613 l -0.104,0.125 -0.029,0.869 c 0.504,1.179 2.928,6.864 3.385,8.234 0.412,1.237 0.808,3.67 0.961,4.662 1.484,1.019 3.332,2.033 3.992,2.033 1.541,0 4.467,0.484 4.592,0.504 l 0.176,0.03 4.169,2.382 -0.587,5.276 -2.815,5.162 2.149,5.156 4.439,2.664 5.371,0.488 5.088,2.544 4.939,3.284 0.532,6.956 v 7.792 l -3.934,3.935 v 3.75 l 2.717,0.777 0.203,0.083 c 0.568,0.309 5.582,3.065 7.115,4.598 1.369,1.369 3.719,2.786 3.742,2.801 l 4.305,3.744 0.852,3.067 4.744,-1.186 8.963,-0.03 6.674,2.67 4.07,1.017 0.486,-4.371 -1.73,-2.307 -1.836,-3.632 6.818,-3.784 5.891,-2.618 8.478,-3.912 6.278,-3.767 3.787,-6.944 4.679,-9.357 5.395,-4.72 8.32,-4.197 11.358,0.67 h 5.181 l 1.063,-3.192 1.359,-6.793 5.373,-5.374 1.59,-2.648 z m -83.941,-68.625 -1.489,-5.224 -1.937,-9.691 -4.328,-8.035 -9.871,-3.085 -11.137,1.964 -5.147,-1.47 -3.121,-4.368 -3.525,0.588 -7.951,-1.988 h -4.115 l -6.514,-4.343 -0.774,-4.645 3.313,-7.952 v -9.399 l -1.586,-3.172 h -3.356 l -1.925,3.851 -5.604,0.799 -5.916,-5.916 -5.34,0.594 -4.716,1.348 -5.274,-0.753 -0.793,-1.321 -1.478,0.66 c -0.143,0.062 -3.516,1.505 -6.475,2.492 -0.251,0.083 -0.48,0.154 -0.69,0.215 -0.14,0.04 -0.26,0.069 -0.384,0.1 -0.064,0.016 -0.135,0.037 -0.195,0.05 -0.127,0.029 -0.238,0.047 -0.35,0.065 -0.043,0.007 -0.092,0.019 -0.133,0.025 -0.106,0.013 -0.2,0.019 -0.294,0.024 -0.037,0.002 -0.078,0.007 -0.114,0.008 -0.012,0 -0.028,0.003 -0.041,0.003 -0.02,0 -0.032,-0.008 -0.052,-0.008 -0.204,-0.005 -0.386,-0.03 -0.55,-0.081 -0.015,-0.005 -0.03,-0.013 -0.046,-0.018 -0.169,-0.057 -0.327,-0.134 -0.489,-0.232 -0.123,-0.075 -0.166,-0.101 -0.416,-0.101 -0.74,0.036 -3.992,1.891 -6.646,3.646 -1.077,1.754 -2.196,3.99 -2.196,4.698 0,0.576 0.215,1.218 0.442,1.898 0.267,0.8 0.543,1.629 0.543,2.53 v 5.976 l -8.709,5.129 -5.149,6.086 -1.39,5.557 v 6.483 l -0.086,0.195 c -0.782,1.758 -1.881,4.626 -1.881,5.496 0,1.367 -1.336,2.349 -2.752,3.388 -0.752,0.553 -1.531,1.125 -1.844,1.594 -0.767,1.151 -1.836,1.661 -2.633,1.84 l -2,4 1.744,3.486 1.124,3.334 -0.967,4.827 3.009,5.586 7.315,0.458 3.516,1.137 0.187,0.265 c 0.106,0.147 2.59,3.647 3.119,6.287 0.348,1.74 2.608,2.157 2.625,2.16 l 0.524,0.087 3.172,6.875 0.72,2.642 7.09,1.252 5.455,3.273 0.088,0.434 c 0.365,1.827 1.182,5.081 1.818,6.036 0.883,1.323 4.373,5.271 4.793,5.746 l 3.787,3.313 c 0.575,0.273 1.936,0.824 2.885,0.824 1.541,0 4.467,0.486 4.592,0.506 l 0.316,0.053 3.411,3.41 5.384,0.449 3.946,-0.877 4.56,-5.472 0.26,-0.311 0.002,-0.002 1.303,-1.562 -0.031,0.865 c 1.447,-0.781 3.867,-2.054 4.96,-2.418 1.489,-0.495 5.256,-0.539 6.096,-0.542 l 3.766,-0.942 5.429,-1.971 c 1.385,-0.396 3.075,-1.256 3.26,-1.814 0.365,-1.092 1.279,-2.074 2.166,-3.022 0.537,-0.576 1.045,-1.121 1.395,-1.643 0.847,-1.275 3.365,-3.018 4.582,-3.819 0.177,-0.684 1.183,-1.514 4.625,-3.391 l 5.006,-2.732 1.367,-6.368 1.033,-7.217 5.644,-5.645 6.418,-4.949 6.938,-7.778 z m -89.235,-70.876 8.041,-7.42 5.518,-3.692 -0.535,-4.806 -3.446,-2.07 1.418,-7.802 c -0.015,-2.119 -0.558,-4.624 -1.283,-4.866 -1.43,-0.477 -4.889,-0.131 -6.101,0.042 l -7.543,0.01 -2.747,3.295 v 6.643 l -4.332,-4.329 -3.763,-5.002 -5.961,-0.597 -5.508,1.224 -3.975,3.311 -5.345,0.668 -5.961,3.312 h -2.881 l -6.199,-1.816 -1.893,2.365 1.154,4.612 3.194,5.113 0.123,0.287 c 0.029,0.122 0.715,3.006 -1.361,7.85 -0.184,0.426 -0.331,0.771 -0.45,1.049 -0.002,0.315 -0.107,0.632 -0.177,0.843 -0.766,2.293 -3.475,3.704 -3.782,3.857 l -0.845,0.423 -3.225,-5.644 v -3.785 l -1.953,-1.953 -2.52,0.504 c -0.771,0.597 -3.662,2.748 -6.615,3.931 -2.726,1.09 -3.316,3.17 -3.338,3.25 l -0.086,0.343 -0.285,0.213 c -0.107,0.081 -2.666,1.999 -4.635,3.31 -1.683,1.125 -3.963,0.731 -5.795,0.417 -0.744,-0.128 -1.445,-0.249 -1.974,-0.249 -0.797,0 -1.883,1.923 -2.336,3.271 l -3.258,9.124 c -0.148,0.668 -1.346,6 -1.98,7.907 -0.442,1.324 0.308,3.742 0.654,4.616 l 1.857,5.567 -5.209,-1.039 -7.123,-5.7 v -7.866 l 3.369,-9.423 3.19,-7.018 v -4.867 l -1.313,-3.935 v -6.027 l 3.121,-1.559 3.77,-2.514 3.896,-4.541 5.676,-5.676 0.508,-3.054 -4.576,-3.814 4.488,-2.69 3.449,-1.174 v -1.49 l -3.511,-3.51 -5.659,-2.52 -10.38,-3.662 -1.342,2.236 1.422,6.395 -4.664,1.553 -3.131,2.089 1.808,4.219 -2.396,5.59 h -4.484 l -5.012,1.114 v 4.465 l -4.379,1.753 -0.432,-0.269 c -1.888,-1.181 -5.502,-2.896 -7.095,-2.501 -2.504,0.627 -6.043,0.679 -6.702,0.684 l -3.543,0.709 -5.935,-3.295 -10.215,1.362 -1.975,-3.948 6.43,-5.714 4.213,-4.815 -1.145,-0.206 -9.782,-0.979 c -0.093,0 -0.355,0.002 -0.751,0.015 -0.015,0 -0.031,0.001 -0.047,0.001 -0.103,0.004 -0.216,0.008 -0.336,0.013 -0.03,10e-4 -0.062,0.003 -0.093,0.004 -0.115,0.005 -0.235,0.01 -0.36,0.016 -0.036,0.002 -0.074,0.004 -0.111,0.006 -0.124,0.007 -0.254,0.014 -0.387,0.023 l -0.137,0.008 c -0.131,0.008 -0.265,0.018 -0.403,0.028 -0.052,0.004 -0.104,0.009 -0.158,0.012 -0.136,0.011 -0.275,0.023 -0.416,0.036 -0.057,0.004 -0.114,0.009 -0.172,0.015 -0.14,0.013 -0.282,0.028 -0.425,0.043 -0.06,0.006 -0.121,0.013 -0.181,0.02 -0.141,0.015 -0.284,0.033 -0.426,0.051 -0.065,0.008 -0.129,0.016 -0.194,0.025 -0.14,0.018 -0.281,0.039 -0.42,0.06 -0.066,0.01 -0.132,0.019 -0.198,0.03 -0.139,0.021 -0.277,0.046 -0.415,0.071 -0.064,0.011 -0.13,0.022 -0.194,0.034 -0.141,0.027 -0.278,0.056 -0.417,0.085 -0.057,0.013 -0.116,0.024 -0.173,0.036 -0.147,0.034 -0.29,0.071 -0.432,0.108 -0.043,0.01 -0.089,0.021 -0.133,0.033 -0.183,0.05 -0.36,0.102 -0.53,0.159 -0.601,0.201 -0.837,0.381 -0.919,0.462 0.046,0.077 0.142,0.188 0.22,0.249 l 0.465,0.348 -0.615,4.915 -0.317,0.254 c -0.109,0.086 -2.679,2.125 -5.347,2.658 -2.321,0.468 -4.555,-0.847 -5.395,-1.422 l -4.291,0.43 -3.855,2.569 c -0.174,1.031 -0.664,3.595 -1.5,5.269 -0.074,0.148 -0.156,0.29 -0.241,0.424 -1.291,2.024 -3.789,2.545 -3.901,2.568 l -5.304,0.019 -4.009,2.672 -3.75,5.625 -0.959,2.879 2.864,4.502 2.581,8.636 c 0.5,1.828 2.987,11.028 2.987,12.559 0,0.103 -0.01,0.227 -0.027,0.366 -0.009,0.076 -0.026,0.17 -0.041,0.259 -0.01,0.065 -0.019,0.124 -0.032,0.194 -0.023,0.121 -0.051,0.256 -0.081,0.394 -0.01,0.042 -0.019,0.084 -0.029,0.128 -0.037,0.16 -0.078,0.33 -0.124,0.512 l -0.003,0.012 c -0.129,0.507 -0.296,1.099 -0.501,1.776 -0.047,0.155 -0.095,0.311 -0.144,0.468 -0.033,0.108 -0.065,0.212 -0.1,0.323 -0.266,0.848 -0.543,1.681 -0.787,2.399 l 4.152,0.567 6.074,3.544 0.037,0.025 0.04,0.025 3.091,2.207 3.816,-0.763 0.365,-2.189 v -7.666 l 3.305,-3.855 3.115,-1.779 c 0.137,-1.649 0.864,-3.849 2.942,-3.849 h 6.222 l 3.967,2.836 0.106,0.304 c 0.004,0.013 0.474,1.371 1.818,3.162 0.146,0.195 0.305,0.392 0.471,0.588 1.157,1.366 2.662,2.648 3.138,3.044 l 3.147,0.903 5.375,0.977 c 0.676,0.097 4.086,0.68 4.74,2.641 0.529,1.585 0.545,6.191 0.545,6.711 v 0.192 l -2.105,5.262 -3.961,4.456 c -0.08,0.163 -0.166,0.345 -0.253,0.534 -0.048,0.105 -0.102,0.225 -0.154,0.341 -0.046,0.103 -0.091,0.204 -0.138,0.312 -0.042,0.097 -0.085,0.203 -0.129,0.304 -0.065,0.157 -0.131,0.312 -0.195,0.472 -0.018,0.046 -0.036,0.094 -0.054,0.14 -0.282,0.716 -0.538,1.451 -0.7,2.088 -0.002,0.004 -0.002,0.008 -0.003,0.013 -0.054,0.212 -0.097,0.412 -0.127,0.598 -0.032,0.193 -0.052,0.377 -0.052,0.536 0,1.776 0.922,4.568 0.92,4.568 0.015,0.039 1.461,3.876 2.873,6.23 0.334,0.558 0.758,1.093 1.205,1.581 1.342,1.466 2.898,2.515 2.92,2.529 l 0.379,0.255 0.459,3.673 3.914,0.782 5.887,-2.452 6.185,1.031 5.5,1.982 c 0.496,0.08 2.936,0.464 4.172,0.464 0.957,0 4.84,-1.175 7.062,-1.915 l 0.215,-0.073 4.502,0.561 0.242,0.243 c 0.067,0.067 1.649,1.663 2.207,3.342 0.549,1.64 -1.845,5.658 -3.423,8.047 l -0.44,3.966 0.926,2.785 1.146,4.008 -2.869,2.869 c -0.007,0.006 -0.697,0.736 -0.697,1.76 0,1.613 -1.617,4.19 -2.076,4.891 -0.078,0.229 -0.383,1.303 -0.383,3.962 0,3.066 -1.961,4.799 -2.951,5.477 v 2.564 l 2.271,3.183 2.588,7.13 0.119,1.973 3.981,2.984 4.033,3.139 6.752,-1.801 c 0.219,-0.138 0.707,-0.451 1.307,-0.849 0.896,-0.598 2.045,-1.391 2.929,-2.1 0.114,-0.092 0.223,-0.181 0.327,-0.268 0.207,-0.175 0.391,-0.343 0.546,-0.498 1.455,-1.456 4.562,-3.276 5.065,-3.566 0.033,-0.019 0.055,-0.032 0.064,-0.037 l 0.266,-0.152 6.916,0.531 0.266,0.144 1.543,0.842 0.291,0.159 3.306,1.805 6.473,0.462 5.607,-1.869 c 0.116,-0.069 0.248,-0.151 0.389,-0.236 1.592,-0.977 4.696,-2.962 5.719,-3.985 1.509,-1.508 7.814,-5.577 8.529,-6.036 l 0.225,-0.107 c 1.195,-0.4 4.545,-1.598 5.664,-2.343 0.095,-0.065 0.215,-0.128 0.351,-0.192 0.042,-0.019 0.095,-0.038 0.141,-0.057 0.1,-0.044 0.202,-0.087 0.318,-0.129 0.065,-0.024 0.137,-0.046 0.205,-0.068 0.114,-0.039 0.226,-0.077 0.35,-0.114 0.078,-0.023 0.163,-0.047 0.245,-0.07 0.126,-0.035 0.254,-0.071 0.389,-0.107 0.089,-0.022 0.18,-0.044 0.272,-0.067 0.14,-0.035 0.279,-0.069 0.426,-0.102 0.097,-0.022 0.195,-0.044 0.294,-0.066 0.149,-0.032 0.298,-0.065 0.452,-0.097 0.102,-0.021 0.205,-0.042 0.309,-0.062 0.154,-0.031 0.309,-0.062 0.466,-0.091 0.106,-0.02 0.212,-0.04 0.319,-0.059 0.162,-0.031 0.324,-0.059 0.486,-0.088 0.102,-0.018 0.201,-0.035 0.303,-0.052 0.169,-0.029 0.337,-0.058 0.506,-0.085 0.094,-0.016 0.189,-0.031 0.283,-0.046 0.178,-0.028 0.351,-0.056 0.525,-0.082 0.08,-0.013 0.161,-0.025 0.241,-0.037 0.188,-0.029 0.37,-0.056 0.55,-0.082 0.061,-0.009 0.123,-0.019 0.183,-0.026 0.21,-0.031 0.412,-0.059 0.607,-0.086 0.025,-0.003 0.052,-0.007 0.077,-0.011 0.221,-0.03 0.434,-0.059 0.631,-0.085 0.377,-0.05 0.703,-0.091 0.961,-0.122 l -0.443,-1.663 -2.713,-5.878 c -1.039,-0.301 -3.238,-1.212 -3.717,-3.612 -0.047,-0.231 -0.113,-0.474 -0.195,-0.723 -0.008,-0.022 -0.018,-0.044 -0.025,-0.066 -0.588,-1.731 -1.903,-3.756 -2.383,-4.466 l -2.512,-0.838 -8.295,-0.519 -3.877,-7.198 1.004,-5.013 -0.879,-2.632 -2.16,-4.317 2.684,-5.367 0.277,-0.553 h 0.601 c 0.036,-0.001 0.764,-0.034 1.385,-0.702 0.089,-0.096 0.176,-0.204 0.258,-0.327 0.508,-0.762 1.432,-1.441 2.324,-2.096 0.664,-0.487 1.899,-1.394 1.936,-1.777 0,-1.498 1.49,-5.022 1.967,-6.114 v -6.183 l 1.562,-6.37 5.672,-6.704 6.039,-3.522 1.975,-1.185 v -4.844 c 0,-0.576 -0.213,-1.218 -0.44,-1.898 -0.267,-0.8 -0.545,-1.629 -0.545,-2.53 0,-1.677 2.176,-5.242 2.614,-5.94 l 0.113,-0.183 0.18,-0.119 c 1.849,-1.233 6.326,-4.102 7.931,-4.102 0.754,0 1.149,0.204 1.522,0.435 0.05,0.006 0.357,0.032 1.605,-0.383 2.875,-0.96 6.283,-2.417 6.303,-2.426 l 1.245,-0.556 -0.696,-1.164 z m -145.568,-43.451 -2.377,-5.543 7.744,-5.635 4.324,-5.559 0.596,-6.545 c -2.092,-2.852 -5.451,-7.121 -6.738,-7.981 -2.098,-1.398 -6.412,-3.765 -9.284,-3.765 -3.031,0 -7.431,1.867 -7.476,1.885 l -0.188,0.081 h -10.609 l -2.814,-4.691 4.929,-2.463 7.515,-3.469 c -0.028,-0.016 -0.052,-0.03 -0.08,-0.047 -0.084,-0.046 -0.173,-0.093 -0.258,-0.14 -0.292,-0.162 -0.592,-0.323 -0.896,-0.482 -0.13,-0.067 -0.26,-0.132 -0.391,-0.199 -0.284,-0.142 -0.566,-0.277 -0.847,-0.406 -0.123,-0.057 -0.247,-0.115 -0.367,-0.168 -0.393,-0.171 -0.776,-0.327 -1.131,-0.445 -1.275,-0.425 -2.379,-1.023 -3.353,-1.549 -1.34,-0.725 -2.496,-1.351 -3.709,-1.351 h -4.887 l -3.25,-3.793 -2.92,-4.842 -4.468,-2.679 h -6.886 l -5.103,-3.065 c -0.025,-0.012 -2.189,-1.143 -4.604,-2.523 l -1.82,3.03 -5.731,8.187 -1.939,-5.821 -0.608,-2.993 -4.035,-2.69 v -5.606 l -2.397,-6.594 -7.118,-2.373 -4.044,1.157 -4.734,4.731 0.668,7.341 -4.681,3.121 h -17.769 l -5.177,-5.178 v -14.373 l -3.365,-2.805 c -3.174,-0.514 -7.928,-1.033 -9.09,-0.651 -2.004,0.669 -8.376,1.947 -8.646,2.001 l -0.478,0.096 -0.369,-0.317 c -2.073,-1.777 -4.921,-3.695 -5.907,-3.695 -0.61,0 -2.648,0.758 -6.409,2.868 l -0.626,11.872 v 6.622 l 3.935,6.884 v 8.484 l 2.308,7.847 c 2.204,1.296 4.864,2.611 5.546,2.611 h 3.301 l 3.584,-1.025 4.81,1.375 -1.923,4.486 -1.443,2.424 -0.952,5.231 -1.459,3.47 v 5.372 l 3.698,5.084 4.016,4.013 1.476,3.445 3.763,3.765 5.913,5.374 -1.772,4.726 -4.362,5.33 c -0.269,1.682 -0.57,4.196 -0.574,5.87 -10e-4,0.558 0.031,1.023 0.108,1.332 0.242,0.968 1.007,1.447 2.713,2.439 0.672,0.389 1.433,0.832 2.282,1.398 2.667,1.777 4.545,3.916 5.027,4.491 l 2.172,1.302 4.269,0.949 9.454,4.45 8.637,1.921 c 2.235,-0.004 6.005,-0.125 6.952,-0.44 1.376,-0.459 4.204,-1.869 4.214,-1.869 l 4.386,-2.74 4.815,2.141 8.828,1.858 0.734,-2.202 4.164,-6.306 4.844,-3.231 h 5.597 c 0.38,-0.098 2.007,-0.59 2.665,-1.906 0.899,-1.798 1.376,-5.072 1.38,-5.104 l 0.064,-0.443 5.006,-3.338 5.572,-0.556 0.319,0.254 c 0.021,0.017 2.146,1.667 4.097,1.275 1.705,-0.342 3.473,-1.517 4.176,-2.024 l 0.377,-3.024 c -0.326,-0.384 -0.686,-0.992 -0.565,-1.734 0.145,-0.896 0.915,-1.582 2.286,-2.039 3.07,-1.025 7.98,-1.036 8.187,-1.036 l 0.046,0.003 c 0.018,0 0.044,0 0.054,0.001 l 9.912,0.996 1.9,0.338 0.776,-1.552 z m -13.924,-54.118 -4.521,-9.687 -1.415,-10.265 0.02,-0.137 c 0.053,-0.377 1.326,-9.263 1.986,-11.905 0.53,-2.119 -1.127,-4.384 -1.142,-4.404 l -1.621,-2.163 8.884,1.974 5.168,6.458 h 5.541 l 2.082,-3.122 -1.138,-4.548 -5.201,-5.201 -3.315,-8.637 -3.76,-7.518 -4.812,-1.804 -11.531,-2.563 -5.871,1.174 -1.59,3.181 1.193,5.373 4.252,6.377 -4.561,5.32 -3.386,1.693 -4.061,-3.382 -5.331,1.185 -4.735,2.028 -7.977,-0.666 -6.091,1.22 -4.574,5.146 2.841,5.682 4.097,2.341 h 9.249 l 3.222,2.415 0.766,5.364 -3.572,5.714 -1.012,0.758 c 0.01,0.006 0.021,0.013 0.031,0.019 0.243,0.136 0.481,0.269 0.713,0.398 0.015,0.009 0.03,0.017 0.046,0.025 1.492,0.83 2.685,1.459 3.011,1.631 0.048,0.026 0.084,0.045 0.091,0.049 l 4.682,2.809 h 6.885 l 5.371,3.222 3.037,5.062 2.596,3.03 h 3.967 c 1.718,0 3.148,0.774 4.66,1.592 0.947,0.512 1.924,1.04 3.035,1.411 0.281,0.094 0.578,0.209 0.878,0.332 0.08,0.032 0.159,0.066 0.24,0.1 0.269,0.114 0.54,0.235 0.815,0.365 0.034,0.016 0.067,0.03 0.101,0.046 0.306,0.146 0.611,0.3 0.912,0.456 0.085,0.044 0.168,0.087 0.253,0.132 0.249,0.131 0.494,0.262 0.734,0.395 0.038,0.021 0.079,0.042 0.118,0.064 l 0.363,-2.917 z m -146.564,-23.802 -8.783,4.106 -0.177,0.062 c -0.078,0.019 -7.853,1.965 -9.763,2.601 -1.225,0.41 -3.181,2.433 -4.087,3.561 l -4.434,6.335 -0.604,7.848 3.165,3.797 1.457,5.829 -3.968,7.935 0.612,5.504 0.621,1.868 c 0.64,1.916 1.935,5.158 1.948,5.192 l 0.149,0.371 -0.149,0.371 c -0.986,2.467 -2.551,6.862 -2.551,8.154 v 6.32 l 2.398,4.8 4.159,2.773 v 4.438 l -6.823,-1.704 -4.922,-6.328 -2.538,-8.885 -3.858,-1.446 -1.201,2.999 h -6.703 l -1.618,-6.465 6.134,-8.181 2.438,-4.874 -1.211,-7.263 -4.756,-5.352 h -3.971 c -0.726,0.262 -4.012,1.517 -6.76,3.717 -3.692,2.951 -7.397,1.518 -7.555,1.458 l -0.271,-0.109 -3.305,-4.626 -2.785,-1.394 -2.786,6.132 -0.734,5.866 -5.326,0.666 c -0.072,0.522 -0.145,1.041 -0.216,1.543 -0.007,0.049 -0.014,0.096 -0.02,0.145 -0.017,0.117 -0.034,0.234 -0.05,0.349 -0.281,1.968 -0.516,3.53 -0.517,3.53 l -0.472,6.122 c 0.287,0.589 0.998,2.096 1.406,3.32 0.538,1.612 0.544,4.144 0.544,4.252 l -1.046,5.324 -2.616,3.662 -3.907,4.883 -3.873,5.325 -1.768,3.975 0.862,2.583 1.103,4.944 -1.903,2.855 1.131,2.637 3.655,2.089 v 4.604 l -3.928,2.244 -4.769,2.861 -3.999,4.887 0.736,2.939 4.585,1.719 h 4.089 l 4.591,-3.279 h 6.146 l 2.543,4.449 c 0.008,-0.002 0.02,-0.003 0.028,-0.004 0.088,-0.015 0.191,-0.028 0.293,-0.042 0.067,-0.009 0.127,-0.018 0.201,-0.026 0.109,-0.013 0.236,-0.024 0.36,-0.035 0.086,-0.008 0.164,-0.017 0.257,-0.024 0.15,-0.011 0.322,-0.018 0.49,-0.026 0.088,-0.004 0.164,-0.01 0.257,-0.014 0.273,-0.01 0.569,-0.015 0.892,-0.015 0.306,0 0.665,0.021 1.062,0.057 2.774,0.258 7.357,1.294 7.96,1.433 l 8.539,0.947 5.32,-2.217 1.697,-3.391 v -9.6 l 0.931,-4.76 c -0.101,-0.268 -0.144,-0.593 -0.061,-0.943 0.211,-0.896 1.09,-1.573 2.764,-2.132 2.992,-0.998 5.932,-1.492 6.055,-1.513 l 0.422,-0.07 4.181,3.136 3.345,1.432 4.468,1.987 3.675,1.839 c 1.518,-0.16 4.84,-0.558 5.89,-0.909 1.35,-0.45 5.029,-0.865 6.254,-0.994 l 2.553,-2.552 c 0.288,-0.759 0.839,-2.412 0.839,-3.375 v -1.668 l 1.338,-3.345 5.182,0.576 4.791,2.08 6.063,3.265 5.948,-1.371 c 0.409,-0.169 2.573,-1.081 4.708,-2.363 1.818,-1.09 3.661,-2.475 4.433,-3.071 v -7.543 l -1.158,-1.543 -2.609,-1.566 -0.116,-0.351 c -0.11,-0.33 -1.061,-3.291 -0.514,-5.477 l 0.597,-2.387 0.38,-0.211 c 0.819,-0.456 2.637,-1.522 4.072,-2.512 0.663,-0.457 1.252,-0.9 1.609,-1.257 0.138,-0.137 0.31,-0.278 0.495,-0.419 0.042,-0.032 0.084,-0.064 0.128,-0.096 0.191,-0.138 0.396,-0.277 0.619,-0.415 0.024,-0.015 0.049,-0.029 0.073,-0.043 0.213,-0.13 0.439,-0.259 0.672,-0.386 0.052,-0.029 0.103,-0.057 0.156,-0.085 0.254,-0.137 0.513,-0.27 0.778,-0.4 0.039,-0.019 0.077,-0.038 0.116,-0.056 0.248,-0.121 0.497,-0.238 0.745,-0.352 0.039,-0.018 0.078,-0.036 0.118,-0.054 0.272,-0.123 0.539,-0.242 0.799,-0.353 0.039,-0.016 0.076,-0.032 0.114,-0.049 0.246,-0.104 0.484,-0.204 0.708,-0.296 0.016,-0.006 0.032,-0.013 0.048,-0.019 0.238,-0.098 0.456,-0.185 0.656,-0.263 0.011,-0.005 0.026,-0.011 0.037,-0.014 l -0.989,-2.308 -3.798,-3.798 -4.228,-5.792 v -6.433 l 1.511,-3.528 0.997,-5.478 1.535,-2.559 1.002,-2.336 -2.078,-0.594 -3.169,0.907 -3.716,0.038 c -1.626,0 -5.7,-2.368 -6.909,-3.094 l -0.335,-0.201 -2.569,-8.738 -0.041,-8.377 -3.935,-6.885 0.001,-7.205 0.549,-10.433 z m -82.936,43.023 -1.345,-8.747 -1.9,-5.065 -3.825,-6.373 -4.992,-4.994 -7.37,-2.456 -10.493,2.623 -6.119,-2.039 -12.984,-2.6 -4.807,-0.602 -4.013,3.441 -1.315,5.254 -3.954,3.295 -1.709,5.698 2.985,2.985 3.373,7.421 1.383,3.458 v 7.369 l -5.718,2.86 -2.153,1.614 v 3.784 l -5.629,7.038 -3.442,1.378 -4.998,3.122 -4.637,6.625 -9.063,3.883 -1.132,2.834 -2.018,8.071 -3.888,3.89 -0.588,4.703 1.337,4.679 -2.799,9.093 -4.096,3.408 -5.169,5.169 -4.624,7.267 -5.878,4.572 -3.18,5.723 -3.81,5.096 v 6.88 l -2.636,9.366 -0.675,7.426 -6.096,7.452 -7.942,5.993 -5.117,6.388 -5.196,7.793 -1.637,3.822 3.144,2.62 4.31,0.616 6.078,2.009 0.238,0.116 c 1.064,0.709 4.156,2.66 5.663,3.162 0.668,0.222 1.524,0.767 2.089,2.084 2.916,-0.217 5.561,-0.33 5.629,-0.332 l 8.271,0.004 10.493,-0.953 4.138,-3.676 3.208,-3.209 0.936,-6.553 2.594,-7.834 0.231,-0.185 c 0.022,-0.017 2.264,-1.827 3.139,-4.015 1.093,-2.734 1.743,-3.83 5.266,-6.345 3.393,-2.425 5.373,-3.907 5.393,-3.922 l 0.13,-0.098 5.939,-1.979 5.138,-3.27 6.771,-9.675 4.874,-3.847 0.306,-0.021 c 0.303,-0.019 7.428,-0.494 8.92,-0.494 1.483,0 10.961,0.474 11.363,0.493 l 0.385,0.02 0.272,0.272 c 1.565,1.565 4.157,3.899 5.019,4.186 1.541,0.512 7.457,4.71 8.627,5.546 l 0.244,0.174 2.471,6.422 4.32,3.456 3.25,-0.812 3.874,-3.014 10e-4,-9.661 h -0.058 l 0.058,-1.034 v -0.966 h 0.054 l 0.604,-10.86 1.436,-4.418 6.236,-6.236 5.753,-1.919 3.71,-6.797 2.417,-5.44 -2.083,-3.646 h -4.346 l -4.591,3.279 h -5.092 l -5.908,-2.215 -1.234,-4.931 4.855,-5.934 5.086,-3.052 2.939,-1.678 v -2.284 l -3.23,-1.844 -1.822,-4.249 2.032,-3.048 -0.879,-3.96 -1.091,-3.271 2.125,-4.78 4.068,-5.629 3.902,-4.876 2.334,-3.268 0.922,-4.609 c -0.007,-0.629 -0.075,-2.064 -0.322,-3.104 -0.035,-0.149 -0.074,-0.289 -0.117,-0.418 -0.464,-1.389 -1.412,-3.292 -1.422,-3.311 l -0.124,-0.248 0.521,-6.742 c 0,0 0.452,-3.013 0.855,-5.951 z m -141.803,179.299 -1.093,6.01 3.348,2.233 6.726,4.036 4.052,5.403 3.274,5.875 7.959,7.295 2.758,9.654 -1.385,10.379 -2.976,2.978 -3.884,1.942 -2.438,3.046 -2.453,4.292 v 3.911 l 2.987,2.987 4.228,6.306 v 6.085 l -4.31,2.868 -2.905,2.323 v 5.181 l -3.151,3.152 -4.921,0.702 -5.575,0.011 -2.979,3.574 -6.545,5.262 -3.572,6.548 2.326,4.072 c 0.033,0.052 3.287,5.257 4.576,7.189 1.28,1.921 3.226,4.52 3.246,4.546 l 0.2,0.267 v 3.449 l 2.431,7.29 4.783,2.051 v 7.217 l -1.299,4.686 0.615,6.758 3.12,4.37 2.696,6.014 3.539,5.662 -2.113,4.225 v 5.253 l 4.184,4.182 4.342,2.172 v 5.421 l -2.623,5.902 v 3.542 l 2.039,5.439 -2.695,6.739 v 3.889 l 6.638,4.828 4.122,0.951 0.04,-0.757 2.613,-5.747 2.793,-2.794 4.473,-0.994 5.451,-4.542 1.442,-6.727 4.69,-7.297 4.046,-1.734 5.747,1.568 3.667,2.242 4.763,-3.031 4.298,-4.774 3.935,-4.918 2.993,-2.521 2.424,-3.39 4.461,-5.45 4.919,-5.41 5.763,-4.217 0.246,-0.035 c 0.002,0 0.017,-0.003 0.044,-0.006 0.407,-0.06 3.489,-0.514 5.266,-0.958 2.232,-0.56 7.138,2.027 8.174,2.597 l 2.7,1.799 h 1.539 l 0.601,-1.203 V 117.4 l -0.992,-4.465 0.5,-6.466 v -3.381 l -7.544,-4.714 -3.936,-4.919 -4.259,-2.663 v -4.674 l 0.629,-0.252 c 0.023,-0.01 2.378,-0.956 3.751,-1.871 1.094,-0.73 2.693,-1.709 3.49,-2.192 v -0.249 -2.033 -1.262 l -14.265,-20.167 v -5.964 l 2.401,-4.799 -0.842,-3.365 -1.53,-1.913 h -4.309 l -3.697,-3.081 1.178,-5.306 2.498,-2.498 0.661,-1.981 -3.157,-1.972 -6.552,-2.017 -2.882,-3.457 v -3.837 l -3.443,-2.951 v -2.288 l -0.946,-3.308 -0.038,-5.342 -3.367,-4.33 -1.526,-6.609 -0.045,-0.234 0.045,-0.216 c 0.014,-0.066 0.323,-1.655 -1.333,-4.14 -1.597,-2.396 -1.986,-3.92 -2.297,-5.144 -0.088,-0.345 -0.17,-0.67 -0.28,-0.996 -0.448,-1.35 -0.863,-5.029 -0.992,-6.254 l -4.961,-4.961 v -9.426 l -2.634,-3.511 -4.889,-2.934 -3.058,-3.567 -3.805,-6.16 -3.478,-0.773 -3.098,3.095 -4.673,4.154 -11.238,1.016 -8.32,-0.001 c -0.021,0.001 -1.361,0.058 -3.175,0.169 -0.02,10e-4 -0.04,0.003 -0.06,0.004 -0.288,0.018 -0.587,0.036 -0.895,0.057 -0.023,0.002 -0.047,0.003 -0.069,0.005 -0.316,0.02 -0.64,0.043 -0.968,0.067 0.057,0.476 0.059,0.806 0.059,0.829 l -0.75,5.321 z m 29.251,228.624 2.462,0.568 17.642,14.928 -0.702,6.322 0.616,5.55 4.982,7.471 3.6,2.058 3.053,-4.275 h 5.469 l 4.186,3.49 5.631,4.38 h 3.592 l 6.691,1.463 2.047,6.821 2.649,2.119 4.766,-1.191 3.646,-0.03 0.846,3.38 0.675,7.949 1.254,5.014 2.929,4.688 7.231,0.602 2.337,-0.467 v -4.007 l 3.005,-6.011 5.766,0.005 6.202,-0.62 4.736,-4.736 0.629,-7.545 0.79,-6.314 4.631,0.926 2.544,2.544 h 5.02 l 3.417,-4.099 4.367,1.456 4.512,-0.564 3.69,-6.764 5.676,-6.424 h 6.629 l 3.387,2.033 12.914,3.229 10.08,1.26 4.921,-3.075 1.028,-0.685 -0.764,-6.504 -4.294,-3.681 -7.793,-8.431 -5.579,-2.093 -1.446,-10.12 2.008,-3.345 V 176.94 l 1.472,-3.681 5.192,-4.543 0.881,-3.529 1.116,0.558 c 0.007,0.003 0.661,0.291 1.12,0.067 0.425,-0.208 0.632,-0.841 0.731,-1.336 0.574,-2.872 1.155,-5.273 1.292,-5.828 v -6.017 0 l 3.354,-6.706 1.717,-5.151 -4.541,-3.405 -5.324,-1.774 -4.773,2.727 -3.338,-2.504 -1.417,-2.834 -0.042,-0.096 c -0.02,-0.051 -1.941,-5.16 -3.175,-7.011 -0.855,-1.282 -5.467,-4.103 -8.208,-5.599 l -6.862,-4.118 -2.858,-7.858 2.035,-6.78 0.628,-6.92 -1.896,-6.319 -3.837,-8.952 -8.607,-8.609 -2.056,-10.959 0.626,-4.376 -6.392,-0.549 -8.268,-0.46 -3.277,5.151 -6.521,3.26 -6.142,-2.047 h -4.365 l -0.383,3.059 -1.969,6.455 -0.5,6.999 -2.413,4.221 -4.443,-0.557 -1.487,0.271 v 1.744 l -0.486,0.291 c -0.024,0.015 -2.456,1.475 -3.895,2.434 -1.088,0.725 -2.633,1.431 -3.489,1.801 v 2.223 l 3.609,2.256 3.936,4.919 8.194,5.122 -0.003,4.566 -0.479,6.246 0.951,4.281 0.023,14.717 -1.365,2.731 h -3.381 l -3.127,-2.089 c -2.438,-1.329 -5.685,-2.613 -6.656,-2.367 -1.708,0.427 -4.43,0.844 -5.265,0.968 l -5.128,3.729 -4.815,5.295 -4.388,5.359 -2.459,3.442 -3.047,2.582 -3.91,4.884 -4.427,4.919 -6.148,3.956 -4.345,-2.715 -4.932,-1.345 -2.841,1.217 -4.163,6.476 -1.51,7.045 -6.354,5.295 -4.379,0.974 -2.125,2.125 -2.306,5.073 z m 192.439,22.042 -0.607,-4.863 1.485,-6.687 8.997,-2.077 4.16,-2.377 3.907,-9.768 8.692,-6.685 5.033,-5.034 1.862,-5.584 1.292,-10.333 v -11.502 c -0.608,-1.164 -2.144,-3.758 -3.491,-4.655 -1.744,-1.163 -4.435,-3.286 -5.144,-3.849 l -5.673,-1.419 -0.957,-5.746 h 6.124 l 5.508,-3.671 2.007,-2.676 5.616,-2.808 6.066,-0.674 6.371,-0.796 v 4.041 l 3.327,3.882 2.923,-0.487 1.921,-3.2 4.749,-1.584 4.255,2.837 3.005,1.202 h 4.397 l 3.378,0.655 h 2.944 l 6.348,-3.173 4.721,-1.366 5.587,-1.862 5.66,-8.168 1.139,-2.05 -0.842,-1.791 -1.537,-5.575 -1.052,-6.795 2.062,-4.638 1.4,-4.667 c -0.153,-1.472 -0.56,-4.908 -0.917,-5.981 -0.162,-0.484 -0.592,-1.14 -1.007,-1.774 -0.74,-1.128 -1.505,-2.295 -1.505,-3.461 0,-0.508 -0.07,-0.969 -0.158,-1.553 -0.148,-0.977 -0.333,-2.193 -0.333,-4.349 0,-2.867 1.229,-4.552 2.417,-6.182 0.396,-0.543 0.804,-1.104 1.168,-1.711 0.955,-1.591 1.938,-2.288 2.727,-2.849 0.511,-0.363 0.917,-0.65 1.233,-1.126 0.566,-0.849 1.73,-1.447 2.96,-2.081 0.579,-0.298 1.172,-0.603 1.669,-0.92 l -0.759,-1.898 -0.964,-2.409 c -0.012,-0.016 -0.031,-0.038 -0.045,-0.055 -0.849,-1.071 -3.073,-3.379 -4.98,-3.379 -2.853,0 -2.853,0 -5.214,0.473 -2.405,0.481 -6.316,1.458 -7.75,1.936 -1.138,0.378 -4.524,2.205 -5.733,2.876 l -5.764,2.109 -11.285,-1.025 -5.615,-3.574 -5.87,-4.88 c -0.918,-0.326 -5.515,-1.926 -8.491,-2.352 -2.489,-0.355 -4.065,-1.629 -5.216,-2.558 -0.536,-0.433 -0.999,-0.808 -1.353,-0.926 -1.599,-0.533 -3.977,-2.414 -4.243,-2.627 l -0.249,-0.199 -1.172,-4.099 2.029,-4.565 v -4.143 l -0.945,-6.622 -3.36,-5.758 -3.073,-5.635 V -3.897 l -2.592,-3.888 c -2.257,-0.742 -5.825,-1.81 -6.737,-1.81 -1.635,0 -4.429,-2.226 -5.438,-3.08 l -9.056,-3.521 -1.261,-2.521 -3.758,1.253 h -3.947 l -4.698,-3.653 -2.207,-3.154 -3.228,1.383 v 8.42 l -5.62,3.512 c -2.368,2.384 -4.873,5.51 -4.873,6.427 0,2.306 -4.487,5.049 -6.417,6.121 l -10.552,3.969 -9.049,5.17 c -2.058,1.607 -4.944,4.149 -5.89,5.528 -0.135,0.197 -0.231,0.371 -0.278,0.514 -0.37,1.111 -1.363,2.599 -2.412,4.173 -0.931,1.397 -1.893,2.84 -2.179,3.697 -0.637,1.909 -2.583,9.685 -2.603,9.764 l -3.292,7.921 -2.601,8.451 -0.399,2.795 v 0 l -0.183,1.28 -0.1,0.704 v 0 l -0.595,4.161 1.88,10.027 8.444,8.443 4.009,9.358 2.063,6.85 -0.673,7.407 -1.911,6.437 2.389,6.57 6.218,3.731 c 0.761,0.416 7.472,4.115 8.879,6.226 1.014,1.521 2.347,4.767 2.997,6.416 0.186,0.474 0.32,0.823 0.368,0.952 l 1.183,2.366 1.908,1.431 4.408,-2.518 6.481,2.159 5.954,4.465 -2.196,6.586 -3.228,6.479 v 5.666 l -0.03,0.242 c -0.006,0.026 -0.657,2.64 -1.301,5.856 -0.272,1.363 -0.883,2.286 -1.814,2.741 -0.605,0.296 -1.218,0.325 -1.723,0.264 l -0.483,1.936 -5.303,4.639 -1.15,2.877 v 10.577 l -1.928,3.212 1.178,8.244 4.914,1.843 7.992,8.657 4.843,4.151 0.737,6.27 4.904,-3.266 z m 41.307,-178.368 0.795,2.781 c 0.797,0.614 2.424,1.78 3.379,2.098 0.697,0.232 1.29,0.712 1.977,1.267 1.077,0.871 2.298,1.857 4.242,2.135 3.505,0.5 8.83,2.428 9.054,2.509 l 0.164,0.06 5.988,4.989 5.151,3.279 10.357,0.941 5.126,-1.864 c 0.661,-0.366 4.074,-2.243 5.702,-2.878 0.108,-0.042 0.209,-0.078 0.3,-0.109 1.521,-0.506 5.479,-1.497 7.99,-1.999 2.533,-0.507 2.585,-0.512 5.607,-0.512 3.354,0 6.37,3.891 6.703,4.335 l 1.493,3.641 c 0.026,-0.039 0.063,-0.08 0.092,-0.119 0.044,-0.062 0.092,-0.125 0.144,-0.189 0.07,-0.086 0.147,-0.174 0.228,-0.263 0.059,-0.064 0.117,-0.128 0.181,-0.193 0.092,-0.094 0.19,-0.188 0.292,-0.283 0.068,-0.063 0.133,-0.126 0.204,-0.191 0.116,-0.103 0.24,-0.207 0.366,-0.312 0.069,-0.058 0.135,-0.116 0.208,-0.175 0.154,-0.124 0.317,-0.25 0.482,-0.376 0.053,-0.04 0.102,-0.079 0.155,-0.119 0.223,-0.167 0.454,-0.335 0.693,-0.503 0.051,-0.035 0.106,-0.072 0.157,-0.108 0.19,-0.131 0.382,-0.262 0.578,-0.393 0.09,-0.06 0.182,-0.12 0.273,-0.179 0.162,-0.106 0.323,-0.212 0.487,-0.317 0.106,-0.068 0.213,-0.134 0.32,-0.201 0.151,-0.096 0.302,-0.19 0.454,-0.284 0.112,-0.069 0.224,-0.136 0.336,-0.204 0.15,-0.091 0.298,-0.181 0.447,-0.27 0.112,-0.066 0.222,-0.132 0.333,-0.197 0.148,-0.087 0.293,-0.171 0.439,-0.256 0.109,-0.063 0.217,-0.125 0.324,-0.187 0.146,-0.083 0.288,-0.164 0.431,-0.245 0.102,-0.057 0.203,-0.115 0.303,-0.171 0.144,-0.081 0.283,-0.157 0.422,-0.234 0.091,-0.05 0.182,-0.101 0.271,-0.15 0.14,-0.077 0.273,-0.149 0.406,-0.221 0.08,-0.043 0.163,-0.089 0.24,-0.13 0.2,-0.108 0.391,-0.209 0.569,-0.304 l 6.013,-7.865 -0.875,-7.443 -5.846,-3.153 -5.902,-2.46 -2.946,-1.754 -1.172,-4.695 2.624,-5.25 5.693,-6.267 6.02,-3.01 6.729,-4.326 4.632,-5.095 0.868,-5.203 -1.813,-1.682 -1.055,-4.222 -0.029,-5.376 -2.549,-4.246 -4.802,-0.437 -4.651,0.517 -4.296,-2.455 0.564,-5.079 1.411,-4.761 -1.566,-3.917 -5.959,0.426 -4.461,2.23 -2.883,5.284 -5.074,4.567 -2.951,2.46 -2.42,1.239 -5.471,-0.547 -3.982,-2.845 -1.117,-5.591 2.496,-6.491 v -3.021 l -2.235,-4.471 -5.86,-3.905 -2.807,-4.49 1.653,-6.058 3.928,-4.419 0.7,-2.799 -1.982,-0.664 -6.741,-1.555 -3.825,-4.921 -0.75,-5.486 -0.469,0.141 -11.6,0.042 c -1.379,0 -3.292,0.963 -3.941,1.35 l -4.427,2.459 -4.527,1.048 -3.675,2.297 c -0.606,0.663 -1.231,1.364 -1.834,2.058 -0.066,0.076 -0.131,0.151 -0.196,0.226 -1.401,1.618 -2.651,3.159 -3.235,4.039 -0.107,0.161 -0.197,0.306 -0.256,0.418 -0.035,0.069 -0.061,0.127 -0.078,0.176 -0.206,0.619 -0.734,1.654 -1.344,2.853 -0.715,1.402 -2.047,4.013 -2.047,4.701 0,1.227 -1.16,4.54 -2.453,8.117 -0.245,0.679 -0.444,1.227 -0.55,1.545 -0.377,1.133 -0.807,4.15 -0.941,5.218 l -0.035,0.284 -6.722,8.275 -6.022,2.737 -6.305,-2.626 -7.191,-4.304 -2.434,0.406 -4.801,7.802 -1.807,6.63 2.109,3.097 4.032,3.136 h 2.937 l 5.096,-1.699 1.69,3.383 8.654,3.364 0.129,0.111 c 1.496,1.283 3.617,2.71 4.268,2.71 1.559,0 6.683,1.683 7.694,2.02 l 0.326,0.108 3.309,4.964 V 6.366 l 2.815,5.161 3.542,6.072 1.011,7.079 0.01,4.781 z M -600.732,-98.181 c -1.46,-0.486 -4.454,-3.341 -5.525,-4.396 -1.826,-0.09 -9.612,-0.472 -10.882,-0.472 -1.258,0 -7.076,0.377 -8.482,0.47 l -4.066,3.163 -6.913,9.877 -5.578,3.551 -5.971,2.02 c -0.495,0.369 -2.379,1.765 -5.299,3.852 -3.343,2.387 -3.677,3.223 -4.571,5.46 -0.894,2.234 -2.835,4.051 -3.512,4.637 l -2.342,7.027 -0.839,5.879 3.935,0.875 4.115,6.687 2.794,3.261 4.949,2.969 3.268,4.357 v 9.265 l 4.879,4.878 0.035,0.355 c 0.134,1.337 0.564,5.055 0.937,6.177 0.124,0.371 0.219,0.742 0.319,1.135 0.289,1.133 0.616,2.418 2.024,4.529 1.803,2.705 1.76,4.72 1.664,5.444 l 1.38,5.984 3.518,4.523 V 8.94 l 0.946,3.308 0.038,1.783 3.443,2.951 v 4.032 l 2.038,2.445 6.109,1.881 4.84,2.984 -1.309,3.922 -2.419,2.42 -0.789,3.548 2.206,1.837 h 4.544 l 2.404,3.005 1.127,4.506 -2.52,5.039 v 4.856 l 14.265,20.166 v 1.534 l 1.43,-0.26 3.426,0.428 1.524,-2.666 0.476,-6.659 1.983,-6.534 0.591,-4.724 h 6.455 l 5.663,1.888 5.285,-2.642 3.608,-5.671 9.468,0.526 6.534,0.56 0.426,-2.985 2.691,-8.769 3.249,-7.8 c 0.213,-0.849 1.994,-7.936 2.627,-9.838 0.37,-1.111 1.363,-2.599 2.412,-4.174 0.931,-1.396 1.893,-2.839 2.179,-3.696 0.716,-2.146 5.867,-6.234 6.893,-7.032 l 9.3,-5.325 10.567,-3.976 c 2.784,-1.558 5.312,-3.616 5.324,-4.337 0,-2.21 4.239,-6.621 5.539,-7.921 l 4.954,-3.126 v -8.631 l 4.753,-2.037 1.84,-6.748 4.556,-7.481 -12.84,-1.75 h -9.701 -0.001 l -3.538,-6.372 -3.045,-4.871 -7.113,-1.292 -6.691,-7.361 -8.566,-5.272 -4.049,-5.398 -2.728,-7.374 -2.994,-4.791 -6.039,-1.208 h -16.973 l -2.882,-7.207 -1.725,-4.598 h -4.209 l -10e-4,10.64 -4.979,3.873 -4.622,1.153 -5.515,-4.412 -2.449,-6.366 c -0.331,-0.235 -0.686,-0.486 -1.058,-0.746 -2.6,-1.821 -5.971,-4.082 -6.795,-4.356 m 224.722,-46.334 -0.001,0.003 -0.817,-1.287 -0.408,-0.642 -8.932,-1.879 -4.142,-1.818 -3.567,2.224 c -0.123,0.061 -3.033,1.514 -4.558,2.022 -1.551,0.518 -6.682,0.544 -7.694,0.544 l -9.071,-1.992 -9.455,-4.45 -4.475,-0.995 -2.752,-1.652 -0.113,-0.139 c -0.019,-0.024 -1.917,-2.37 -4.693,-4.221 -0.798,-0.532 -1.531,-0.958 -2.178,-1.334 -1.782,-1.035 -3.19,-1.853 -3.647,-3.681 -0.529,-2.11 0.371,-7.653 0.475,-8.278 l 0.044,-0.263 4.491,-5.489 1.179,-3.145 -4.943,-4.495 -3.48,-3.481 c -0.006,0.002 -0.012,0.005 -0.019,0.007 -0.245,0.094 -0.503,0.196 -0.77,0.304 -0.016,0.006 -0.032,0.013 -0.048,0.019 -0.27,0.11 -0.548,0.225 -0.829,0.345 -0.003,0.001 -0.006,0.003 -0.009,0.004 -0.284,0.121 -0.57,0.246 -0.853,0.374 -0.008,0.004 -0.017,0.007 -0.025,0.011 -0.267,0.121 -0.531,0.244 -0.788,0.368 -0.032,0.015 -0.064,0.031 -0.096,0.046 -0.245,0.119 -0.481,0.238 -0.707,0.356 -0.037,0.02 -0.074,0.039 -0.11,0.059 -0.221,0.116 -0.429,0.232 -0.621,0.345 -0.031,0.019 -0.061,0.038 -0.091,0.055 -0.191,0.115 -0.367,0.228 -0.519,0.336 -0.017,0.012 -0.031,0.023 -0.048,0.035 -0.155,0.113 -0.291,0.222 -0.393,0.324 -1.309,1.31 -4.614,3.244 -5.744,3.888 l -0.388,1.551 c -0.301,1.203 0.097,3.068 0.366,4.015 l 2.298,1.379 1.793,2.391 v 9.177 l -0.375,0.301 c -0.103,0.082 -2.541,2.025 -5.029,3.517 -2.499,1.5 -4.958,2.49 -5.061,2.532 l -6.909,1.606 -6.658,-3.589 -4.286,-1.904 -3.516,-0.391 -0.629,1.573 v 1.284 c 0,1.621 -0.947,4.036 -1.055,4.305 l -0.076,0.192 -3.35,3.348 -0.355,0.035 c -0.083,0.008 -0.176,0.018 -0.277,0.029 -1.514,0.158 -4.846,0.558 -5.9,0.909 -1.537,0.513 -6.096,0.979 -6.611,1.031 l -0.288,0.028 -4.152,-2.078 -4.415,-1.962 -3.443,-1.474 -3.792,-2.809 c -0.9,0.17 -3.128,0.626 -5.335,1.362 -0.725,0.242 -1.104,0.456 -1.295,0.593 l 0.097,0.096 -1.069,5.348 v 9.973 l -2.24,4.48 -6.484,2.701 -9.11,-1.011 -0.115,-0.019 c -0.004,-10e-4 -0.032,-0.008 -0.082,-0.02 -0.747,-0.17 -6.374,-1.432 -8.547,-1.432 -0.31,0 -0.585,0.006 -0.839,0.016 -0.077,0.003 -0.145,0.007 -0.218,0.01 -0.171,0.009 -0.333,0.017 -0.478,0.029 -0.061,0.005 -0.121,0.009 -0.177,0.015 -0.15,0.013 -0.288,0.027 -0.407,0.042 -0.025,0.004 -0.054,0.007 -0.078,0.01 -0.144,0.018 -0.267,0.038 -0.365,0.056 l -2.461,5.53 -4.123,7.56 -6.052,2.019 -5.568,5.568 -1.195,3.583 -0.589,10.615 h 5.538 l 2.203,5.875 2.371,5.93 h 15.719 l 7.177,1.417 3.508,5.611 2.664,7.264 3.732,4.975 8.364,5.147 6.546,7.143 7.315,1.329 3.54,5.665 2.995,5.388 h 8.592 l 15.05,2.042 2.69,-0.448 7.631,4.579 5.433,2.264 4.801,-2.182 6.066,-7.468 c 0.125,-0.952 0.548,-3.988 0.99,-5.316 0.11,-0.327 0.314,-0.893 0.567,-1.592 0.698,-1.932 2.334,-6.459 2.334,-7.437 0,-1.087 0.896,-2.927 2.264,-5.611 0.551,-1.079 1.071,-2.097 1.23,-2.575 0.518,-1.555 4.81,-6.314 6.113,-7.736 l 4.288,-2.725 4.453,-0.987 4.271,-2.372 c 0.11,-0.067 2.722,-1.619 4.941,-1.619 h 11.166 l 2.569,-0.771 1.967,-0.59 5.118,-5.119 3.371,-6.739 6.714,-7.29 12.916,-4.962 3.825,-1.913 3.146,-2.698 0.225,-0.644 c 0.17,-0.492 0.333,-0.967 0.48,-1.403 0.001,-0.005 0.003,-0.009 0.005,-0.014 0.139,-0.417 0.263,-0.797 0.383,-1.165 0.057,-0.178 0.113,-0.352 0.169,-0.527 0.062,-0.198 0.122,-0.389 0.179,-0.572 0.057,-0.186 0.113,-0.368 0.167,-0.546 0.073,-0.246 0.146,-0.489 0.207,-0.703 0.007,-0.023 0.014,-0.048 0.021,-0.072 0.252,-0.887 0.394,-1.493 0.45,-1.85 0,-0.002 0,-0.003 0,-0.005 0.019,-0.118 0.028,-0.21 0.028,-0.275 0,-0.924 -1.705,-7.593 -2.91,-12.014 l -2.421,-8.226 z m 91.848,116.534 v -4.381 l 0.553,-0.277 c 0,-10e-4 0.023,-0.014 0.03,-0.017 0.019,-0.011 0.041,-0.023 0.084,-0.048 0.034,-0.021 0.093,-0.061 0.14,-0.091 0.045,-0.03 0.084,-0.053 0.138,-0.092 0.076,-0.053 0.167,-0.129 0.256,-0.2 0.044,-0.035 0.081,-0.061 0.127,-0.101 0.106,-0.092 0.22,-0.207 0.333,-0.324 0.035,-0.036 0.068,-0.063 0.104,-0.102 0.118,-0.13 0.233,-0.284 0.346,-0.442 0.03,-0.041 0.062,-0.073 0.09,-0.116 0.111,-0.166 0.209,-0.356 0.304,-0.552 0.023,-0.048 0.053,-0.089 0.076,-0.139 0.089,-0.201 0.153,-0.429 0.214,-0.66 0.015,-0.06 0.041,-0.109 0.054,-0.169 0.065,-0.3 0.102,-0.623 0.102,-0.971 0,-3.502 0.496,-4.674 0.596,-4.873 l 0.062,-0.109 c 0.727,-1.088 1.801,-3.072 1.801,-3.871 0,-1.838 1.145,-3.037 1.275,-3.168 l 2.045,-2.043 -0.81,-2.836 -1.053,-3.16 0.543,-4.885 0.135,-0.203 c 1.855,-2.784 3.406,-5.842 3.326,-6.507 -0.283,-0.852 -1.045,-1.813 -1.5,-2.32 l -3.354,-0.418 c -1.29,0.426 -5.443,1.764 -7.167,1.929 -0.115,0.012 -0.219,0.018 -0.311,0.018 -1.541,0 -4.467,-0.486 -4.59,-0.506 l -5.502,-1.982 -5.527,-0.923 -5.918,2.466 -5.926,-1.182 -0.527,-4.213 c -0.887,-0.645 -3.084,-2.371 -4.346,-4.476 -1.506,-2.509 -2.969,-6.391 -3.043,-6.591 -0.043,-0.127 -1.035,-3.131 -1.035,-5.236 0,-2.141 1.861,-5.925 2.074,-6.35 l 3.965,-4.512 1.832,-4.577 c -0.01,-1.867 -0.131,-4.956 -0.441,-5.887 -0.151,-0.453 -1.672,-1.082 -3.164,-1.3 l -5.508,-1.006 -3.635,-1.038 -0.158,-0.126 c -0.104,-0.083 -2.576,-2.071 -4.11,-4.115 -1.164,-1.552 -1.757,-2.831 -1.994,-3.405 l -2.937,-2.098 h -5.582 c -0.721,0 -0.965,1.818 -0.967,2.443 v 0.58 l -3.797,2.169 -2.598,3.032 v 7.008 l -0.619,3.797 -6.019,1.202 -3.759,-2.683 -5.69,-3.32 -4.159,-0.567 -0.002,0.004 -0.066,0.186 -3.644,3.123 -4.227,2.143 -12.572,4.835 -6.14,6.611 -3.451,6.903 -5.703,5.705 -2.752,0.824 0.718,5.266 3.059,3.934 6.14,1.421 3.829,1.278 -1.267,5.069 -3.943,4.436 -1.299,4.762 2.114,3.382 5.944,3.962 2.684,5.368 v 3.864 l -2.422,6.297 0.849,4.246 2.905,2.075 4.365,0.437 1.605,-0.803 2.833,-2.359 4.792,-4.314 3.02,-5.535 5.377,-2.688 7.812,-0.559 2.37,5.922 -1.551,5.166 -0.409,3.684 2.589,1.48 4.205,-0.467 6.016,0.547 3.355,5.592 v 5.563 l 0.881,3.528 1.383,1.284 5.248,-2.185 5.576,-2.028 h 9.32 l 5.657,3.6 3.32,3.287 h 7.197 l 4.131,-2.292 5.902,-3.935 9.284,-3.132 5.076,0.391 -0.043,-1.154 -2.36,-6.61 z m -91.319,137.465 1.053,-1.894 4.773,-3.41 5.224,-1.789 1.464,5.851 c 1.073,0.546 3.959,2.041 5.598,3.133 0.717,0.478 1.465,0.646 2.334,0.84 1.234,0.277 2.635,0.59 4.269,1.815 1.696,1.273 2.452,2.099 2.782,2.661 l 4.148,1.781 3.846,1.282 9.773,1.304 3.572,0.595 3.2,-1.921 h 5.134 l 4.823,2.756 3.287,3.24 -2.151,5.738 -0.632,5.068 v 4.029 l 1.726,1.296 3.238,-1.618 3.77,-3.77 3.725,-4.967 0.625,-6.181 v -5.902 l 0.752,-3.863 4.742,-3.388 1.719,-2.863 v -4.112 l 0.341,-0.299 c 0.215,-0.188 5.305,-4.638 7.928,-6.605 2.535,-1.902 6.414,-5.771 6.453,-5.81 l 0.293,-0.293 h 5.598 l -1.805,-5.365 1.572,-5.756 1.36,-4.079 -0.719,-1.795 -3.318,-1.897 -3.198,-4.262 -1.048,-4.209 c -0.057,-0.342 -0.524,-3.392 0.646,-5.146 0.811,-1.216 2.236,-3.038 2.783,-3.729 v -2.602 c 0,-0.832 -0.719,-2.582 -1.244,-3.86 -0.271,-0.659 -0.517,-1.263 -0.674,-1.727 -0.51,-1.532 -0.976,-5.644 -1.027,-6.108 l -0.02,-0.178 0.043,-0.174 c 0.004,-0.02 0.487,-1.969 0.963,-5.31 0.5,-3.492 1.949,-7.86 2.01,-8.045 l 0.061,-0.178 0.119,-0.145 c 0.107,-0.129 2.652,-3.158 5.316,-4.224 2.604,-1.041 4.656,-1.547 6.274,-1.547 1.394,0 5.164,0.405 5.894,0.485 l 3.475,-0.434 c 1.144,-1.179 2.695,-2.99 2.963,-3.794 0.138,-0.416 0.234,-0.791 0.328,-1.148 0.236,-0.909 0.48,-1.849 1.263,-3.024 0.26,-0.389 0.453,-0.649 0.623,-0.875 0.446,-0.593 0.69,-0.919 1.75,-3.392 1.37,-3.194 1.395,-5.975 1.395,-6.002 l 0.014,-0.163 c 0.01,-0.068 0.024,-0.163 0.037,-0.255 0.021,-0.16 0.051,-0.39 0.078,-0.665 0.014,-0.14 0.027,-0.284 0.039,-0.439 0.001,-0.014 0.002,-0.03 0.003,-0.045 0.056,-0.78 0.075,-1.708 -0.03,-2.508 -0.003,-0.017 -0.006,-0.033 -0.008,-0.05 -0.028,-0.192 -0.061,-0.377 -0.104,-0.549 -0.521,-2.088 -0.521,-6.107 -0.521,-7.621 0,-1.641 0.525,-4.2 1.035,-5.727 0.013,-0.04 0.027,-0.086 0.044,-0.141 0.005,-0.014 0.01,-0.031 0.014,-0.046 0.012,-0.043 0.026,-0.089 0.04,-0.141 0.007,-0.024 0.014,-0.052 0.022,-0.08 0.014,-0.051 0.028,-0.105 0.044,-0.166 0.008,-0.03 0.017,-0.064 0.025,-0.097 0.016,-0.063 0.033,-0.131 0.05,-0.203 0.011,-0.043 0.023,-0.088 0.033,-0.136 0.017,-0.069 0.035,-0.145 0.053,-0.221 0.015,-0.061 0.028,-0.119 0.043,-0.186 0.016,-0.068 0.033,-0.146 0.05,-0.221 0.053,-0.23 0.107,-0.48 0.17,-0.77 l -0.422,-0.23 -5.869,-0.451 c -0.711,0.42 -2.709,1.628 -3.961,2.687 -0.179,0.152 -0.343,0.299 -0.485,0.442 -1.539,1.539 -5.423,3.973 -5.587,4.076 l -8.131,2.214 -4.805,-3.738 -3.701,-2.776 -0.959,-0.074 -0.041,-0.003 -4.902,-0.377 -8.536,2.845 -5.861,3.902 -4.652,2.586 h -8.543 l -3.658,-3.658 -5.073,-3.229 h -8.386 l -5.202,1.891 -4.363,1.818 -1.029,0.429 -0.94,5.646 -5.117,5.629 -7.086,4.595 -5.83,2.922 -5.192,5.663 -2.231,4.462 0.794,3.174 2.042,1.225 5.925,2.474 6.852,3.69 1.091,9.281 -6.775,8.858 -0.193,0.103 c -1.056,0.556 -2.145,1.162 -3.19,1.775 -3.136,1.84 -5.878,3.735 -6.144,4.47 -0.043,0.172 -0.108,0.338 -0.188,0.503 -0.04,0.084 -0.092,0.163 -0.14,0.243 -0.042,0.069 -0.082,0.138 -0.131,0.207 -0.069,0.094 -0.144,0.186 -0.222,0.275 l 0.023,0.057 -0.561,0.465 -0.162,0.135 c -0.018,0.014 -0.033,0.029 -0.051,0.042 l -0.843,0.701 -0.047,-0.117 c -0.483,0.286 -0.995,0.554 -1.507,0.817 -0.793,0.407 -1.678,0.862 -2.074,1.249 -0.056,0.055 -0.103,0.109 -0.138,0.161 -0.521,0.782 -1.141,1.222 -1.74,1.647 -0.703,0.499 -1.43,1.015 -2.169,2.247 -0.41,0.684 -0.846,1.281 -1.267,1.859 -1.135,1.559 -2.033,2.79 -2.033,5.005 0,2.006 0.172,3.138 0.311,4.049 0.096,0.641 0.18,1.194 0.18,1.853 0,0.569 0.653,1.565 1.177,2.365 0.486,0.741 0.988,1.506 1.233,2.238 0.51,1.537 0.977,6.096 1.029,6.61 l 0.019,0.198 -1.532,5.108 -1.892,4.278 0.929,6.047 1.439,5.272 z m 105.065,-18.599 0.465,1.303 h 0.562 l 9.391,1.99 8.637,3.96 11.31,2.513 6.072,-3.643 c 0.596,-0.711 3.403,-4.041 5.2,-5.839 0.857,-0.857 1.761,-1.25 2.689,-1.154 0.865,0.086 1.483,0.578 1.824,0.936 l 3.327,0.554 7.543,-2.509 6.097,-2.71 h 9.393 l 7.799,1.402 4.775,6.822 2.926,2.925 h 3.933 l 2.739,2.738 5.793,1.738 5.148,-4.412 5.781,11.57 5.78,9.631 4.8,3 h 6.27 l 6.012,1.312 h 7.56 l 7.635,-3.181 5.834,-3.242 8.17,-4.765 4.937,0.705 5.012,1.247 5.225,-2.321 2.994,-7.185 -1.826,-6.7 -5.661,-7.546 -5.726,-3.182 -5.094,-2.91 v -4.328 l 4.295,-3.58 4.576,-2.633 2.472,-2.966 -0.899,-3.241 -3.645,-3.189 c -0.187,-0.114 -0.68,-0.424 -1.286,-0.84 -0.854,-0.585 -1.938,-1.389 -2.763,-2.214 -1.101,-1.102 -5.017,-3.356 -6.56,-4.203 l -4.061,-1.16 v -6.087 l 3.934,-3.935 0.004,-6.888 -0.456,-5.908 -3.97,-2.647 -4.694,-2.347 -5.451,-0.495 -5.396,-3.238 -2.77,-6.649 3.086,-5.658 0.399,-3.579 -2.717,-1.552 c -0.643,-0.103 -2.91,-0.449 -4.088,-0.449 -1.709,0 -4.881,-2.205 -5.5,-2.646 l -0.348,-0.249 -0.06,-0.424 c -0.133,-0.932 -0.563,-3.603 -0.942,-4.743 -0.028,-0.083 -0.065,-0.188 -0.108,-0.304 -0.013,-0.035 -0.029,-0.077 -0.044,-0.116 -0.032,-0.087 -0.067,-0.179 -0.106,-0.279 -0.021,-0.055 -0.043,-0.113 -0.066,-0.17 -0.039,-0.099 -0.079,-0.201 -0.122,-0.309 -0.024,-0.061 -0.049,-0.124 -0.075,-0.189 -0.051,-0.127 -0.106,-0.262 -0.16,-0.399 -0.022,-0.052 -0.042,-0.102 -0.064,-0.156 -0.078,-0.192 -0.159,-0.391 -0.243,-0.596 -0.019,-0.045 -0.038,-0.091 -0.057,-0.136 -0.07,-0.171 -0.141,-0.344 -0.214,-0.521 -0.026,-0.06 -0.051,-0.122 -0.077,-0.183 -0.069,-0.168 -0.138,-0.336 -0.209,-0.505 -0.021,-0.05 -0.042,-0.1 -0.063,-0.151 -0.087,-0.208 -0.174,-0.417 -0.261,-0.624 -0.003,-0.006 -0.005,-0.011 -0.008,-0.017 -0.514,-1.228 -1.002,-2.373 -1.285,-3.038 l -3.211,3.852 -4.908,1.091 -6.418,-0.535 -3.473,-3.474 c -0.783,-0.122 -2.843,-0.428 -3.949,-0.428 -1.664,0 -3.668,-0.977 -3.89,-1.088 l -4.145,-3.585 -0.09,-0.088 c -0.162,-0.184 -3.994,-4.496 -5.004,-6.013 -0.914,-1.373 -1.746,-5.002 -2.025,-6.317 l -4.385,-2.63 -8.033,-1.418 c -3.959,0.472 -8.465,1.263 -9.254,1.789 -0.272,0.182 -0.625,0.374 -1.024,0.569 -1.729,0.846 -4.326,1.74 -4.997,1.966 -1.969,1.27 -6.963,4.574 -8.092,5.701 -1.545,1.545 -6.381,4.454 -6.586,4.577 l -6.289,2.122 -7.303,-0.521 -3.16,-1.725 c -0.059,0.264 -0.113,0.501 -0.166,0.722 -0.016,0.063 -0.029,0.117 -0.043,0.178 -0.046,0.186 -0.089,0.357 -0.129,0.51 -0.015,0.055 -0.029,0.111 -0.043,0.161 -0.05,0.18 -0.098,0.344 -0.141,0.472 -0.393,1.182 -0.812,3.144 -0.91,4.536 -0.014,0.199 -0.021,0.386 -0.021,0.558 0,1.308 0,5.287 0.461,7.136 0.062,0.247 0.11,0.507 0.147,0.773 0.073,0.531 0.101,1.089 0.101,1.623 0.001,1.336 -0.169,2.533 -0.219,2.851 -0.012,0.537 -0.139,3.398 -1.555,6.702 -1.105,2.578 -1.424,3.053 -1.986,3.803 -0.152,0.203 -0.328,0.435 -0.561,0.785 -0.597,0.895 -0.771,1.567 -0.992,2.417 -0.103,0.398 -0.213,0.815 -0.367,1.279 -0.539,1.617 -3.164,4.297 -3.684,4.817 l -0.242,0.243 -4.392,0.549 -0.117,-0.013 c -0.006,-0.001 -0.079,-0.008 -0.205,-0.022 -0.88,-0.095 -4.36,-0.464 -5.588,-0.464 -1.34,0 -3.202,0.473 -5.532,1.404 -1.904,0.762 -3.898,2.935 -4.4,3.508 -0.279,0.865 -1.449,4.585 -1.867,7.509 -0.414,2.908 -0.826,4.767 -0.959,5.332 0.152,1.325 0.558,4.446 0.918,5.524 0.142,0.43 0.373,0.988 0.625,1.599 0.654,1.59 1.394,3.393 1.394,4.62 v 3.301 l -0.219,0.274 c -0.019,0.025 -1.953,2.444 -2.9,3.866 -0.553,0.829 -0.502,2.715 -0.355,3.629 l 0.935,3.739 2.707,3.608 3.565,2.038 1.25,3.123 -1.575,4.721 -1.396,5.119 z M 2.977,8.446 l -5.184,5.226 -1.252,6.261 -1.57,4.738 -6.682,-0.002 -10.883,-0.639 -7.515,3.757 -5.002,4.377 -4.52,9.038 -4.064,7.452 -6.791,4.075 -8.635,3.992 -5.824,2.583 -5.065,2.814 0.844,1.686 2.15,2.868 -0.826,7.433 -6.355,-1.588 -6.508,-2.594 h -8.213 l -4.809,1.202 -0.238,0.285 -2.947,3.538 -4.67,2.67 -3.508,2.922 v 2.231 l 4.076,2.329 6.088,3.383 6.147,8.193 2.105,7.729 -3.564,8.554 -6.58,2.925 -5.53,-1.383 -4.197,-0.599 -7.586,4.425 -5.902,3.279 -8.156,3.406 h -8.071 l -6.011,-1.312 h -6.735 l -5.693,-3.558 -6.065,-10.111 -4.672,-9.348 -4.033,3.457 -7.324,-2.197 -2.508,-2.508 h -3.933 l -3.575,-3.572 -4.464,-6.355 -6.723,-1.222 h -8.879 l -5.799,2.572 -8.105,2.702 -4.608,-0.768 -0.24,-0.361 c -0.002,-0.004 -0.293,-0.389 -0.662,-0.426 -0.367,-0.038 -0.793,0.294 -1.076,0.578 -1.912,1.913 -5.155,5.797 -5.186,5.836 l -0.109,0.13 -7.045,4.227 -12.193,-2.709 -8.629,-3.957 -8.969,-1.922 h -1.865 -5.487 c -0.972,0.96 -4.109,4.007 -6.371,5.703 -2.179,1.635 -6.265,5.167 -7.468,6.213 v 3.756 l -2.217,3.696 -4.438,3.17 -0.558,2.795 -0.006,5.902 -0.686,6.836 -4.101,5.469 -4.141,4.157 -4.635,2.316 -3.515,-2.638 v -5.091 l 0.662,-5.37 1.797,-4.871 -2.073,-2.073 -4.244,-2.426 h -4.049 l -3.355,2.015 -4.266,-0.711 -9.838,-1.312 -4.195,-1.384 -5.199,-2.227 v -0.463 c -0.135,-0.204 -0.629,-0.823 -2.223,-2.02 -1.289,-0.967 -2.365,-1.208 -3.506,-1.463 -0.972,-0.218 -1.98,-0.444 -3.006,-1.128 -1.893,-1.262 -5.756,-3.198 -5.795,-3.217 l -0.411,-0.206 -1.162,-4.645 -2.768,0.923 -4.284,3.061 -1.534,2.758 10e-4,0.001 -0.138,0.247 -1.06,1.908 -0.002,-0.003 -0.49,0.878 -6.091,8.799 -6.261,2.086 -4.5,1.287 -6.688,3.342 h -3.514 l -3.378,-0.655 h -4.684 l -3.459,-1.384 -3.711,-2.448 -3.12,1.04 -2.014,3.358 -4.949,0.824 -4.542,-5.3 v -2.516 l -4.136,0.517 -5.725,0.636 -4.876,2.439 -1.929,2.571 -6.297,4.197 h -4.368 l 0.354,2.124 4.822,1.206 0.171,0.136 c 0.032,0.026 3.267,2.611 5.176,3.884 2.127,1.418 4.061,5.204 4.275,5.631 l 0.106,0.211 v 12.041 l -1.32,10.617 -2.086,6.318 -5.413,5.414 -8.406,6.476 -3.963,9.907 -4.894,2.797 -8.181,1.932 -1.138,5.118 0.703,5.629 -7.064,5.647 -6.753,4.502 -1.142,0.762 -5.549,3.466 -10.844,-1.355 -13.236,-3.301 -3.313,-1.938 h -5.176 l -4.873,5.482 -4.125,7.563 -5.98,0.748 -3.503,-1.168 -3.142,3.77 h -6.785 l -2.702,-2.701 -1.928,-0.386 -0.519,4.138 -0.685,8.235 -5.758,5.758 -7.013,0.696 h -4.628 l -2.242,4.482 v 5.175 l -4.221,0.845 -8.511,-0.709 -3.544,-5.672 -1.435,-5.534 -0.675,-7.948 -0.447,-1.787 h -1.719 l -5.609,1.401 -3.908,-3.127 -1.889,-6.295 -5.222,-1.161 h -4.168 l -6.201,-4.822 -3.656,-3.048 h -3.715 l -3.504,4.908 -5.581,-3.189 -5.512,-8.269 -0.695,-6.254 0.609,-5.483 -16.459,-13.928 -1.648,-0.379 -1.674,-0.387 -0.304,-0.07 -4.862,-1.122 -7.791,-5.667 v -5.292 l 2.55,-6.377 -1.894,-5.054 v -4.328 l 2.623,-5.903 v -3.76 l -3.528,-1.764 -4.998,-4.998 v -6.552 l 1.822,-3.645 -2.981,-4.771 -2.649,-5.934 -3.377,-4.729 -0.697,-7.669 1.324,-4.636 v -5.759 l -4.397,-1.884 -2.817,-8.45 v -3.109 c -0.537,-0.723 -2.029,-2.747 -3.11,-4.368 -1.306,-1.957 -4.474,-7.025 -4.628,-7.273 l -2.901,-5.076 4.3,-7.88 6.636,-5.31 3.514,-4.216 h 6.299 l 4.191,-0.599 2.094,-2.094 v -5.314 l 3.725,-2.974 3.49,-2.326 v -4.409 l -3.713,-5.568 -3.502,-3.502 v -5.271 l 2.755,-4.821 2.849,-3.579 3.985,-1.993 2.27,-2.27 1.24,-9.295 -2.488,-8.709 -7.781,-7.133 -3.326,-5.985 -3.776,-5.035 -6.431,-3.859 -4.481,-2.988 1.53,-8.419 5.223,-1.958 0.56,-3.923 c -0.006,-0.192 -0.041,-0.788 -0.214,-1.416 l -0.002,-0.006 c -0.161,-0.579 -0.475,-1.308 -1.066,-1.504 -1.9,-0.634 -5.347,-2.873 -6.027,-3.321 l -5.692,-1.896 -4.782,-0.683 -4.725,-3.939 2.26,-5.276 5.385,-8.101 5.247,-6.557 7.953,-6.004 5.632,-6.883 0.628,-6.91 2.619,-9.231 v -7.406 l 4.095,-5.46 3.345,-6.022 5.926,-4.608 4.497,-7.069 5.451,-5.478 3.707,-3.089 2.449,-7.958 -1.286,-4.501 0.722,-5.789 3.982,-3.981 1.901,-7.601 1.507,-3.795 9.3,-3.984 4.545,-6.492 5.418,-3.385 3.193,-1.295 4.862,-6.079 v -4.083 l 3.024,-2.269 4.847,-2.441 v -5.748 l -1.222,-3.058 -3.204,-7.048 -3.574,-3.573 2.226,-7.419 3.915,-3.263 1.311,-5.239 5.167,-4.43 5.759,0.722 13.116,2.623 5.746,1.907 10.493,-2.623 8.37,2.79 5.413,5.415 4.086,6.749 2.047,5.411 1.312,8.401 0.966,0.965 1.081,1.081 3.99,-0.499 0.559,-4.475 3.789,-8.449 5.086,2.544 3.233,4.524 c 0.74,0.203 3.006,0.601 5.31,-1.242 3.38,-2.706 7.356,-4.047 7.523,-4.104 l 0.154,-0.051 h 5.202 l 5.737,6.453 1.412,8.475 -2.769,5.537 -5.711,7.643 1.007,4.027 h 3.789 l 1.423,-3.56 6.636,2.488 2.708,9.482 4.259,5.477 3.669,0.917 v -0.808 l -3.71,-2.474 -2.847,-5.696 v -6.793 c 0,-1.884 1.949,-6.998 2.546,-8.524 -0.363,-0.92 -1.305,-3.329 -1.84,-4.932 l -0.656,-1.969 -0.733,-6.4 3.902,-7.803 -1.168,-4.667 -3.391,-4.07 0.707,-9.203 4.786,-6.834 c 0.288,-0.36 2.871,-3.531 5.056,-4.259 1.888,-0.631 8.89,-2.39 9.819,-2.622 l 8.3,-3.831 7.755,-7.108 0.161,-0.12 c 0,0 0.261,-0.157 0.691,-0.407 v -0.002 l 0.475,-0.27 c 0.011,-0.007 0.02,-0.012 0.031,-0.018 l 1.559,-0.89 -0.002,0.027 c 3.084,-1.668 5.199,-2.518 6.286,-2.518 1.983,0 5.513,2.766 6.832,3.86 1.53,-0.312 6.348,-1.313 7.936,-1.842 2.097,-0.697 8.962,0.393 10.317,0.619 l 0.267,0.045 4.503,3.752 v 14.482 l 4.005,4.006 h 16.335 l 3.188,-2.125 -0.645,-7.089 5.763,-5.761 5.136,-1.468 8.622,2.874 2.848,7.835 v 4.886 l 3.834,2.556 0.726,3.625 0.663,1.991 3.413,-4.872 1.766,-2.944 -0.208,-0.12 3.141,-2.356 2.987,-4.778 -0.546,-3.819 -2.025,-1.519 h -9.114 l -5.084,-2.905 -3.718,-7.435 5.92,-6.659 7.025,-1.405 7.762,0.646 4.363,-1.868 6.558,-1.476 3.811,3.175 1.856,-0.927 3.312,-3.864 -3.619,-5.427 -1.428,-6.432 2.344,-4.69 7.244,-1.448 12.012,2.668 5.748,2.145 4.15,8.309 3.201,8.329 5.293,5.291 1.487,5.945 -3.166,4.749 h -7.573 l -5.328,-6.659 -3.441,-0.764 c 0.435,1.113 0.752,2.562 0.381,4.043 -0.592,2.371 -1.762,10.418 -1.926,11.566 l 1.272,9.549 4.595,9.847 0.686,6.182 -0.6,4.809 -0.137,1.105 h -0.002 l -0.031,0.248 -0.219,-0.131 -8.751,4.039 -2.969,1.484 1.121,1.867 h 9.07 c 0.938,-0.384 4.979,-1.966 8.07,-1.966 4.04,0 9.366,3.417 10.393,4.101 2.057,1.372 6.92,8.018 7.467,8.772 l 0.223,0.303 -0.717,7.88 -4.772,6.134 -6.769,4.973 1.558,3.636 4.36,3.633 -1.902,3.8 -0.421,0.843 -4.732,5.458 -5.418,4.826 0.65,1.299 9.457,-1.26 5.872,3.26 2.918,-0.584 0.197,-0.02 c 0.039,0 3.84,-0.005 6.314,-0.624 2.561,-0.648 6.776,1.639 8.203,2.48 l 2.19,-0.876 v -4.715 l 6.685,-1.487 3.493,-0.024 1.539,-3.59 -2.127,-4.96 4.627,-3.087 3.318,-1.142 -1.203,-5.41 2.592,-4.323 11.994,4.235 6.072,2.701 4.359,4.357 v 3.76 l -4.515,1.504 -1.979,1.187 3.293,2.744 -0.801,4.817 -6.076,6.073 -3.935,4.59 -4.139,2.806 -2.18,1.097 v 4.465 l 1.313,3.936 v 5.625 l -3.338,7.334 -3.221,9.018 v 6.56 l 5.992,4.796 1.354,0.269 -0.748,-2.245 c -0.148,-0.37 -1.426,-3.683 -0.676,-5.935 0.631,-1.896 1.928,-7.711 1.94,-7.77 l 3.306,-9.281 c 0.258,-0.771 1.67,-4.619 4.227,-4.619 0.699,0 1.484,0.135 2.314,0.278 1.557,0.267 3.324,0.571 4.346,-0.11 1.574,-1.048 3.6,-2.542 4.297,-3.061 0.33,-0.873 1.426,-3.053 4.412,-4.249 3.098,-1.239 6.273,-3.762 6.307,-3.788 l 0.189,-0.151 4.041,-0.81 3.295,3.297 v 4.082 l 1.986,3.476 c 0.58,-0.399 1.27,-0.975 1.686,-1.635 -0.008,-0.341 0.142,-0.695 0.246,-0.94 l 0.723,-1.685 c 1.548,-3.616 1.357,-5.906 1.279,-6.451 l -3.176,-5.086 -1.557,-6.015 3.356,-4.19 7.064,2.118 h 2.217 l 5.846,-3.247 5.148,-0.645 3.897,-3.247 6.295,-1.397 7.154,0.716 4.156,5.54 0.867,0.867 v -2.541 l 3.809,-4.571 h 8.27 c 0.748,-0.104 4.894,-0.634 6.945,0.051 2.521,0.842 2.65,5.855 2.65,6.851 l -1.203,6.712 3.11,1.867 0.779,6.999 -6.346,4.23 -7.713,7.07 -2.883,4.611 0.626,1.045 0.781,1.301 3.91,0.558 4.387,-1.253 6.543,-0.742 5.888,5.889 3.576,-0.51 2.01,-4.019 h 5.828 l 2.35,4.699 v 10.272 l -3.246,7.79 0.537,3.223 5.289,3.527 h 3.633 l 7.91,1.947 4.346,-0.725 3.439,4.816 4.031,1.151 11.164,-1.97 11.114,3.474 4.785,8.885 2.049,10.037 1.15,4.034 2.285,0.572 2.201,0.55 3.873,-0.647 5.887,0.737 2.899,5.073 1.861,3.725 2.168,1.625 h 4.174 l 4.361,-0.728 6.07,6.07 2.356,0.589 3.465,2.031 c 0.994,0.373 2.539,1.488 2.539,3.53 v 1.775 l 2.41,6.028 2.836,1.417 v 4.316 l 3.279,6.559 v 3.979 l 0.988,2.472 h 1.534 l 2.33,-2.33 5.133,-2.975 9.939,2.13 4.816,6.88 2.096,6.16 0.664,5.141 3.738,4.362 3.694,5.887 z"
             style="fill:#000000;fill-opacity:1;fill-rule:nonzero;stroke:none"
             id="path22" /></g><g
           id="g24"
           transform="translate(355.6304,136.2227)"><path
             d="m 0,0 0.129,-0.228 c 1.103,-1.471 2.974,-4.165 3.294,-5.126 0.312,-0.938 0.433,-4.071 0.44,-5.933 l -1.369,-4.562 -4.204,-4.672 c -1.205,-0.871 -3.772,-2.932 -3.772,-4.683 0,-1.799 2.704,-3.137 4.213,-3.743 l 1.616,-3.233 c -0.43,-1.301 -1.193,-2.727 -1.702,-2.898 -1.385,-0.462 -4.704,-0.931 -6.079,-0.931 -0.511,0 -1.957,1.173 -3.078,2.488 l -2.129,4.787 -0.531,0.088 c -0.029,0.005 -3.015,0.501 -6.926,0.991 -3.869,0.489 -5.133,-2.006 -5.885,-3.495 -0.167,-0.331 -0.325,-0.644 -0.481,-0.877 -0.469,-0.703 -2.854,-1.606 -4.758,-2.032 l -4.988,-0.907 c -1.444,1.077 -3.007,2.523 -3.229,3.192 -0.321,0.961 -0.441,3.936 -0.441,5.586 l -1.007,4.642 c -0.784,3.525 -1.967,4.68 -2.758,5.047 -0.738,1.349 -1.645,3.315 -1.645,4.082 0,0.766 1.477,4.194 2.846,6.932 l 0.135,0.27 -0.639,5.111 h -4.326 l -9.501,-1.488 -0.119,-0.025 c -0.151,-0.044 -3.716,-1.08 -5.843,-3.206 -1.884,-1.883 -1.034,-4.368 -0.353,-6.365 0.234,-0.682 0.453,-1.326 0.571,-1.917 0.42,-2.098 1.488,-4.472 1.895,-5.332 l -1.284,-5.569 c -2.467,-1.098 -5.282,-2.167 -6.025,-2.167 -0.232,0 -0.582,-0.012 -1.015,-0.026 -1.87,-0.063 -6.836,-0.23 -8.222,0.81 -1.721,1.29 -4.393,2.203 -5.368,2.51 l -4.341,6.753 -4.6,3.066 c -0.478,0.329 -0.74,2.754 -0.572,5.116 l 2.447,2.447 0.04,0.349 c 0.02,0.182 0.498,4.498 0.498,6.012 0,1.748 -2.242,4.527 -2.651,5.014 l -3.773,5.189 -0.466,5.136 -3.569,9.284 -0.111,0.129 c -0.029,0.034 -2.923,3.414 -3.862,4.822 -0.326,0.49 -0.827,1.1 -1.358,1.747 -0.842,1.024 -2.41,2.931 -2.41,3.601 v 4.542 l 3.218,3.679 4.603,5.626 1.01,7.073 1.808,5.424 5.321,2.66 h 5.851 l 2.363,5.906 -1.506,4.016 1.309,5.671 7.438,4.182 6.488,2.782 5.486,-1.827 c 0.198,-0.08 4.808,-1.921 6.373,-2.454 0.145,-0.184 0.868,-1.415 0.868,-7.438 v -7.102 l -2.734,-4.556 -6.036,-5.532 -0.064,-0.321 c -0.102,-0.513 -1.003,-5.061 -1.003,-6.591 0,-1.504 0.892,-7.791 0.994,-8.503 l 0.056,-0.391 5.189,-4.15 c 0.182,-0.163 4.496,-3.994 6.011,-5.003 1.27,-0.846 3.118,-1.35 3.91,-1.54 l 2.625,-3.498 1.583,-5.279 6.257,-1.705 0.302,0.113 c 0.169,0.064 4.174,1.586 7.243,4.656 1.339,1.338 1.792,1.791 1.765,2.189 0.074,0.097 0.165,0.213 0.276,0.352 1.463,1.828 2.375,2.83 2.721,3.198 l 2.562,0.854 h 6.672 L -9.136,31.854 1.336,28.045 5.247,23.699 3.923,17.96 0.557,12.188 -0.492,9.597 -0.554,9.367 C -0.574,9.224 -1.056,5.836 -1.056,4.308 -1.056,2.686 -0.107,0.271 0,0 m 2.321,11.244 3.406,5.839 1.704,7.181 -4.943,5.49 -11.055,4.02 -9.582,1.039 -7.154,0.006 -3.329,-1.11 -0.167,-0.167 c -0.042,-0.042 -1.046,-1.052 -3.025,-3.525 -0.439,-0.549 -0.793,-0.994 -0.919,-1.402 -0.223,-0.223 -0.547,-0.549 -0.974,-0.975 -2.308,-2.309 -5.309,-3.686 -6.242,-4.079 l -4.549,1.24 -1.368,4.556 -3.287,4.383 -0.373,0.075 c -0.024,0.005 -2.287,0.468 -3.578,1.329 -1.401,0.932 -5.748,4.794 -5.831,4.867 l -4.61,3.687 c -0.3,2.134 -0.918,6.747 -0.918,7.828 0,1.048 0.601,4.342 0.902,5.879 l 5.66,5.189 3.275,5.378 v 7.656 c 0,7.549 -1.038,8.935 -2.159,9.31 -1.431,0.477 -6.291,2.419 -6.394,2.458 l -6.264,2.088 -7.235,-3.101 -8.351,-4.69 -1.643,-7.119 1.446,-3.854 -1.573,-3.93 h -4.969 l -6.484,-3.242 -2.098,-6.295 -0.986,-6.786 -4.229,-5.169 -3.691,-4.218 v -5.294 c 0,-1.287 1.187,-2.831 2.864,-4.871 0.499,-0.607 0.969,-1.181 1.24,-1.586 0.906,-1.359 3.338,-4.229 3.896,-4.884 l 3.33,-8.564 0.504,-5.544 4.138,-5.687 c 1.076,-1.293 2.228,-3.123 2.228,-3.786 0,-1.17 -0.334,-4.38 -0.449,-5.444 l -2.465,-2.466 -0.034,-0.36 c -0.164,-1.806 -0.353,-6.133 1.425,-7.318 l 4.253,-2.835 4.518,-7.028 0.363,-0.104 c 0.032,-0.009 3.286,-0.95 5.085,-2.297 1.714,-1.286 5.57,-1.339 9.489,-1.21 0.404,0.013 0.732,0.025 0.948,0.025 1.611,0 6.365,2.123 7.301,2.549 l 0.449,0.204 1.667,7.227 -0.16,0.321 c -0.013,0.028 -1.422,2.864 -1.882,5.159 -0.143,0.721 -0.395,1.458 -0.639,2.171 -0.702,2.055 -1.061,3.37 -0.126,4.305 1.631,1.63 4.499,2.55 4.926,2.68 l 9.201,1.453 h 2.482 l 0.346,-2.759 c -0.837,-1.691 -2.922,-6.054 -2.922,-7.554 0,-1.656 1.748,-4.801 2.099,-5.414 l 0.288,-0.504 h 0.45 c 0.179,-0.11 0.97,-0.749 1.613,-3.644 l 0.96,-4.32 c 0.003,-0.812 0.045,-4.613 0.543,-6.107 0.566,-1.699 3.684,-3.991 4.303,-4.434 l 0.344,-0.246 5.864,1.067 c 0.805,0.18 4.877,1.16 6.026,2.881 0.223,0.335 0.407,0.7 0.603,1.086 0.737,1.461 1.375,2.723 3.851,2.412 2.909,-0.364 5.298,-0.731 6.316,-0.892 l 1.748,-3.932 0.145,-0.233 c 0.648,-0.778 2.9,-3.312 4.703,-3.312 1.578,0 5.115,0.501 6.711,1.034 1.881,0.627 2.916,3.95 3.105,4.61 l 0.106,0.374 -2.316,4.634 -0.367,0.138 c -1.576,0.593 -3.175,1.584 -3.287,2.014 0.02,0.507 1.49,2.023 3.024,3.121 l 4.739,5.231 1.54,5.133 0.042,0.287 c 0,0.52 -0.015,5.126 -0.543,6.711 C 4.824,-3.234 2.363,0.12 1.811,0.862 1.531,1.587 0.944,3.313 0.944,4.308 c 0,1.238 0.381,4.049 0.466,4.659 z"
             style="fill:#000000;fill-opacity:1;fill-rule:nonzero;stroke:none"
             id="path26" /></g><g
           id="g28"
           transform="translate(329.936,204.3193)"><path
             d="m 0,0 c -1.649,-1.098 -3.129,-3.992 -3.292,-4.318 l -0.211,-0.422 2.501,-5.627 7.163,1.792 1.138,2.274 2.139,2.567 2.701,0.385 3.386,-2.116 2.72,-5.439 v -4.457 l 2.099,-3.674 0.087,-0.129 c 0.082,-0.102 2.031,-2.53 4.501,-5 0.394,-0.395 0.853,-0.976 0.795,-1.499 -0.057,-0.513 -0.607,-0.874 -0.669,-0.916 l -3.182,-2.273 h -5.838 l -4.708,2.354 -5.843,2.133 -4.672,-1.558 -6.516,-0.93 c -0.811,0.356 -3.344,1.488 -4.504,2.261 -0.203,0.136 -0.444,0.291 -0.712,0.462 -1.58,1.012 -4.224,2.706 -5.379,4.631 -1.244,2.073 -1.749,4.992 -1.824,5.464 v 5.476 c 0.557,0.7 2.062,2.603 3.242,4.176 1.206,1.609 1.546,2.689 1.641,3.215 l 2.834,4.726 2.432,3.89 3.188,4.1 6.304,1.349 2.952,-0.737 V 7.713 L 3.089,4.023 C 2.36,2.76 0.914,0.61 0,0 M 1.108,-1.664 C 2.733,-0.58 4.652,2.727 4.865,3.1 l 1.608,4.25 v 6.373 l -4.917,1.227 -7.47,-1.599 -3.666,-4.715 -2.528,-4.033 -2.952,-4.92 -0.12,-0.242 -0.02,-0.225 c -0.001,-0.009 -0.089,-0.814 -1.278,-2.399 -1.449,-1.931 -3.404,-4.377 -3.423,-4.401 l -0.219,-0.274 v -6.253 l 0.01,-0.142 c 0.021,-0.148 0.538,-3.673 2.099,-6.275 1.397,-2.327 4.287,-4.179 6.015,-5.285 0.257,-0.166 0.487,-0.313 0.683,-0.443 1.534,-1.023 4.935,-2.484 5.08,-2.546 l 0.257,-0.11 7.163,1.021 4.271,1.409 5.029,-1.83 5.078,-2.54 h 6.952 l 3.636,2.602 c 0.141,0.084 1.377,0.866 1.558,2.333 0.131,1.065 -0.328,2.131 -1.365,3.167 -2.181,2.181 -3.992,4.391 -4.306,4.776 l -1.795,3.144 v 4.398 L 17.062,-4.066 12.578,-1.265 8.394,-1.863 5.687,-5.109 4.784,-6.858 0.143,-8.02 l -1.43,3.217 c 0.513,0.933 1.52,2.556 2.395,3.139"
             style="fill:#000000;fill-opacity:1;fill-rule:nonzero;stroke:none"
             id="path30" /></g><g
           id="g32"
           transform="translate(666.3047,210.6904)"><path
             d="m 0,0 c -0.123,-0.371 -1.031,-1.182 -1.811,-1.717 l -2.876,-1.081 -1.504,-3.003 3.312,-2.944 0.844,-2.812 -0.233,-2.096 -3.195,-0.984 -3.463,2.205 h -5.058 l -3.772,-1.373 -2.685,-1.629 -0.791,-3.955 5.531,-0.615 4.986,-0.451 1.539,-1.925 0.94,-5.645 2.025,-5.125 4.242,-5.712 -1.179,-3.536 -2.37,-1.186 h -6.627 l -1.884,2.638 c 0.328,1.362 0.898,5.133 -1.86,7.889 -0.402,0.403 -1.629,1.622 -2.814,1.003 -1.25,-0.654 -1.1,-2.842 -0.869,-4.194 l -0.412,-3.288 -2.545,-1.455 -1.92,0.961 v 5.284 c 0,1.798 -1.881,3.772 -2.26,4.15 l -0.363,0.365 -0.508,-0.085 c -0.133,-0.023 -3.287,-0.565 -4.969,-2.248 -0.877,-0.876 -1.16,-1.96 -0.795,-3.052 0.158,-0.476 0.41,-0.851 0.588,-1.077 l 0.91,-3.641 0.459,-4.123 -1.328,-3.542 c -0.328,-0.339 -1.646,-1.487 -4.539,-1.487 -2.084,0 -2.58,0 -2.767,-0.535 -1.686,-0.349 -2.432,-0.769 -2.647,-1.486 -0.031,-0.098 -0.047,-0.197 -0.051,-0.297 l -1.47,-2.94 0.566,-3.962 2.57,-4.115 2.192,-2.749 3.91,-1.677 4.744,0.475 3.125,-2.735 -1.049,-3.491 -2.926,0.365 -4.353,2.177 -2.721,-2.176 -5.599,-0.468 -5.424,-1.994 3.218,-4.501 2.694,-2.713 -0.295,-1.77 c -1.303,-0.267 -4.238,-0.822 -6.012,-0.822 -1.898,0 -3.064,-0.941 -4.002,-1.696 -0.459,-0.369 -0.855,-0.688 -1.234,-0.815 -0.77,-0.256 -2.584,0.104 -3.694,0.46 l -4.283,2.569 0.412,4.516 2.534,3.549 -0.655,4.58 -3.992,0.57 -5.293,3.089 c -0.133,1.448 -0.299,4.245 0.026,5.544 0.269,1.075 2.041,1.612 2.638,1.716 l 0.594,0.098 1.957,5.872 -4.777,2.046 -6.885,-4.426 -2.52,1.08 -0.716,2.507 3.558,4.745 -5.732,1.43 -4.342,-1.93 -2.279,0.978 0.718,3.237 4.436,3.105 6.863,1.47 5.875,3.74 1.596,5.32 c 0.103,0.415 1.014,4.099 1.014,5.653 0,1.483 0,4.566 -1.022,8.144 -1.072,3.754 -4.209,5.879 -4.342,5.968 l -0.33,0.219 -3.965,-0.661 -1.13,-3.972 -1.297,-3.457 -4.819,-1.316 -8.144,-0.507 -2.432,-2.432 -1.516,-6.065 -1.568,-3.136 -3.201,0.71 -1.734,3.468 -1.881,4.232 v 5.051 l -6.012,1.092 -3.119,2.229 -4.151,5.994 v 9.393 l 1.87,7.009 7.263,7.751 5.311,6.762 4.183,2.788 4.036,1.345 c 0.974,-0.22 4.328,-0.986 5.533,-1.387 0.65,-0.217 1.734,-0.819 2.783,-1.401 1.18,-0.656 2.293,-1.275 3.119,-1.55 0.854,-0.285 1.967,-1.446 2.469,-2.111 l 0.301,-0.4 h 3.918 l 2.459,2.951 h 3.935 l 2.317,-3.243 5.49,-2.494 1.838,-1.841 2.968,-1.814 4.731,0.789 -2.631,4.603 -2.428,7.284 c -0.525,1.577 -4.068,3.881 -5.549,4.789 l -2.296,5.967 -0.938,6.571 c 0.141,0.49 0.578,1.885 1.289,2.952 0.543,0.814 2.842,1.96 4.356,2.538 l 5.117,0.932 6.437,-1.488 6.041,1.649 1.795,2.991 0.496,4.458 c 0.323,0.611 1.596,2.927 3.176,4.508 1.709,1.707 4.352,2.176 4.377,2.179 l 1.627,0.53 c 1.617,0.538 2.248,1.115 2.359,1.225 l 0.291,0.292 v 5.047 l -1.529,3.569 -1.371,5.031 1.248,3.329 4.047,2.698 3.098,1.033 4.505,-0.601 3.272,-1.783 3.793,-4.667 -1.982,-5.946 c -1.268,-0.556 -5.079,-2.234 -6.196,-2.794 -1.638,-0.816 -2.521,-2.759 -2.521,-4.173 0,-0.666 -0.397,-3.686 -0.647,-5.433 l -0.06,-0.429 2.892,-3.617 5.643,-4.997 3.83,-4.468 2.096,-3.593 -0.268,-4.003 -2.187,-0.936 -1.145,-4.577 0.016,-0.165 c 0.011,-0.164 0.336,-4.033 0.679,-5.406 0.276,-1.104 -0.027,-5.167 -0.306,-6.001 -0.321,-0.962 -0.174,-3.806 -0.08,-5.178 l -2.696,-2.701 -2.951,-3.608 -1.486,-3.37 4.935,-2.694 2.43,1.623 3.279,1.967 2.455,2.127 4.241,-0.282 2.525,-1.684 C -0.047,6.139 0.594,4.661 0.604,4.275 0.604,3.325 0.273,0.822 0,0 m 0.723,8.906 -3.375,2.252 -5.6,0.371 -2.867,-2.508 -3.242,-1.947 -1.465,-0.976 -2.278,1.243 0.569,1.329 2.795,3.424 3.277,3.276 -0.035,0.458 c -0.15,1.957 -0.205,4.375 -0.049,4.854 0.381,1.144 0.721,5.626 0.35,7.118 -0.241,0.962 -0.514,3.735 -0.616,4.922 l 0.823,3.293 2.402,1.028 0.391,5.837 -2.451,4.2 -4.04,4.736 -5.607,4.96 -2.299,2.875 c 0.17,1.215 0.606,4.412 0.606,5.287 0,0.686 0.504,1.93 1.414,2.384 1.273,0.638 6.459,2.907 6.511,2.93 l 0.407,0.178 2.611,7.829 -4.734,5.825 -3.942,2.15 -5.332,0.711 -3.664,-1.221 -4.933,-3.246 -1.702,-4.539 1.561,-5.721 1.439,-3.386 v -3.704 c -0.248,-0.144 -0.66,-0.346 -1.283,-0.553 l -1.408,-0.47 c -0.537,-0.102 -3.377,-0.723 -5.377,-2.722 -2.059,-2.06 -3.566,-5.054 -3.631,-5.18 l -0.08,-0.159 -0.486,-4.387 -1.156,-1.927 -4.782,-1.304 -6.347,1.466 -5.616,-1.022 -0.171,-0.047 c -0.707,-0.265 -4.293,-1.674 -5.399,-3.333 -1.068,-1.602 -1.592,-3.669 -1.613,-3.756 l -0.049,-0.189 1.012,-7.081 2.638,-6.932 0.295,-0.177 c 2.444,-1.466 4.77,-3.283 4.977,-3.886 l 2.461,-7.377 1.336,-2.377 -1.174,-0.195 -2.037,1.221 -2.008,2.01 -5.332,2.424 -2.604,3.643 h -5.902 l -2.459,-2.951 h -2.002 c -0.568,0.674 -1.789,1.965 -3.115,2.407 -0.649,0.217 -1.732,0.82 -2.781,1.402 -1.18,0.655 -2.295,1.274 -3.121,1.55 -1.508,0.503 -5.819,1.461 -6.002,1.503 l -0.27,0.059 -4.689,-1.561 -4.666,-3.069 -5.584,-7.035 -7.551,-8.052 -2.031,-7.622 -0.036,-10.406 4.706,-6.795 3.765,-2.689 4.811,-0.876 v -3.805 l 2.072,-4.661 2.18,-4.362 5.654,-1.254 2.316,4.631 1.485,5.839 1.504,1.505 7.492,0.467 6.105,1.645 1.682,4.491 0.809,2.833 1.91,0.318 c 0.718,-0.567 2.531,-2.193 3.226,-4.628 0.946,-3.309 0.946,-6.204 0.946,-7.595 0,-1.109 -0.69,-4.106 -0.942,-5.123 l -1.369,-4.563 -4.943,-3.147 -6.909,-1.479 -5.404,-3.782 -1.248,-5.615 4.606,-1.975 4.511,2.004 2.141,-0.534 -2.346,-3.127 1.25,-4.379 4.369,-1.87 6.885,4.425 2.111,-0.903 -1.009,-3.026 c -1.057,-0.294 -3.155,-1.115 -3.641,-3.061 -0.521,-2.082 -0.076,-6.276 -0.023,-6.748 l 0.054,-0.5 6.506,-3.795 2.895,-0.414 0.328,-2.303 -2.383,-3.338 -0.574,-6.304 5.457,-3.275 0.199,-0.09 c 0.258,-0.086 2.09,-0.678 3.715,-0.678 0.482,0 0.945,0.052 1.344,0.185 0.72,0.241 1.297,0.705 1.855,1.155 0.801,0.644 1.557,1.253 2.748,1.253 2.539,0 6.918,0.966 7.102,1.007 l 0.658,0.147 0.689,4.124 -3.257,3.257 -1.655,2.314 2.586,0.97 6.069,0.506 2.197,1.758 3.515,-1.757 4.944,-0.619 1.904,6.344 -4.746,4.153 -5.094,-0.51 -2.976,1.276 -1.774,2.218 -2.316,3.707 -0.418,2.925 1.398,2.798 c 0.2,0.078 0.567,0.195 1.207,0.323 0.424,0.085 0.948,0.189 1.295,0.472 0.262,0.001 0.586,0.001 0.967,0.001 4.385,0 6.139,2.27 6.211,2.366 l 1.697,4.409 -0.519,4.665 -1.074,4.334 -0.196,0.196 c -0.002,0.002 -0.213,0.232 -0.312,0.532 -0.086,0.257 -0.115,0.578 0.312,1.005 0.836,0.836 2.422,1.355 3.369,1.583 0.623,-0.72 1.317,-1.751 1.317,-2.35 v -6.521 l 3.982,-1.992 4.344,2.483 0.572,4.582 -0.027,0.15 c -0.121,0.673 -0.166,1.453 -0.127,1.94 0.107,-0.086 0.24,-0.205 0.402,-0.367 2.467,-2.467 1.248,-6.317 1.237,-6.353 l -0.163,-0.484 3.055,-4.276 h 8.129 l 3.531,1.768 1.774,5.315 -4.662,6.216 -1.879,4.695 -1.008,6.052 -2.397,2.997 -5.814,0.527 -3.344,0.371 0.194,0.963 1.673,1.031 3.346,1.217 h 4.123 l 3.75,-2.388 5.332,1.641 0.424,3.806 -1.125,3.746 -2.59,2.303 0.467,0.929 2.254,0.847 0.203,0.105 c 0.529,0.351 2.285,1.594 2.689,2.81 0.377,1.129 0.708,3.858 0.708,4.908 0,1.121 -1.235,3.464 -1.764,4.419 z"
             style="fill:#000000;fill-opacity:1;fill-rule:nonzero;stroke:none"
             id="path34" /></g><g
           id="g36"
           transform="translate(528.8594,158.5654)"><path
             d="m 0,0 c 0,-0.395 -0.465,-1.725 -0.969,-2.936 h -3.537 l -4.281,-2.376 0.85,-0.935 c 1.355,-1.491 2.894,-3.454 3.019,-3.919 0,-0.928 0.475,-3.671 0.631,-4.538 -0.172,-0.597 -0.65,-2.241 -0.908,-3.014 -0.219,-0.611 -2.514,-2.694 -3.557,-2.955 -0.867,-0.217 -3.131,-0.653 -5.385,-0.008 -1.838,0.525 -3.48,1.056 -4.027,1.236 l -2.75,2.443 c -0.887,1.021 -2.182,2.741 -2.365,3.474 -0.282,1.119 -1.323,2.38 -2.241,3.493 -0.345,0.419 -0.671,0.814 -0.849,1.08 -0.723,1.086 -2.495,2.043 -2.929,2.268 l -3.132,2.278 v 2.466 l 1.311,1.968 v 3.34 l -2.083,2.082 -7.261,2.766 -5.034,-0.002 -4.223,0.281 c -0.482,1.684 -0.885,3.534 -0.804,3.962 0.335,0.74 3.556,3.399 4.294,3.649 0.776,0.251 6.92,0.604 8.201,0.604 0.498,-0.028 2.634,-0.945 4.366,-1.806 l 4.824,-4.18 3.89,-2.353 4.428,2.214 3.5,3.103 1.484,2.038 h 5.195 l 4.655,-1.861 3.24,-2.064 L 0,5.07 Z m -4.693,15.6 -5.264,2.123 h -6.609 l -1.875,-2.625 -3.096,-2.787 -3.324,-1.664 -2.735,1.642 -4.852,4.207 -0.208,0.139 c -1.247,0.623 -4.264,2.072 -5.365,2.072 -0.779,0 -7.637,-0.306 -8.842,-0.708 -1.119,-0.373 -5.082,-3.49 -5.551,-4.894 -0.374,-1.121 0.452,-4.152 0.977,-5.858 l 0.203,-0.658 5.671,-0.376 h 4.738 l 6.51,-2.481 1.196,-1.195 V 0.631 l -1.311,-1.969 v -4.089 l 4.018,-2.925 0.142,-0.086 c 0.719,-0.36 1.889,-1.103 2.237,-1.626 0.234,-0.351 0.576,-0.765 0.972,-1.245 0.665,-0.806 1.67,-2.024 1.842,-2.706 0.369,-1.471 2.432,-3.882 2.84,-4.35 l 3.193,-2.849 0.196,-0.064 c 0.019,-0.007 2.013,-0.671 4.304,-1.326 1.081,-0.309 2.145,-0.418 3.112,-0.418 1.379,0 2.558,0.222 3.308,0.41 1.592,0.397 4.516,2.907 4.967,4.26 0.332,0.992 0.971,3.227 0.998,3.322 l 0.065,0.223 -0.043,0.23 c -0.246,1.36 -0.639,3.76 -0.639,4.411 0,0.795 -0.908,2.246 -2.703,4.323 l 1.633,0.907 h 4.326 l 0.266,0.594 C 0.932,-3.604 2,-1.11 2,0 v 5.422 l -2.801,7.698 z"
             style="fill:#000000;fill-opacity:1;fill-rule:nonzero;stroke:none"
             id="path38" /></g><g
           id="g40"
           transform="translate(460.8901,152.2686)"><path
             d="m 0,0 -4.171,-1.139 v -1.744 c -0.013,-0.339 -0.604,-1.461 -1.283,-2.454 l -2.039,-0.766 -3.3,0.826 c -0.599,0.746 -2.295,2.73 -4.063,3.615 -0.829,0.414 -1.262,0.602 -1.601,0.75 -0.449,0.195 -0.696,0.303 -1.611,0.851 -1.127,0.677 -2.645,2.911 -3.208,3.83 l -0.293,0.877 c -0.176,0.526 0.234,2.045 0.48,2.953 0.071,0.264 0.14,0.517 0.197,0.75 0.18,0.714 0.203,0.729 0.785,1.094 0.13,0.083 0.277,0.175 0.439,0.284 1.326,0.884 1.43,3.37 1.43,4.111 v 1 h -3.533 l -2.177,-1.09 c -2.312,-1.153 -2.24,-3.11 -2.201,-4.162 0.003,-0.119 0.008,-0.232 0.014,-0.289 -0.075,-0.234 -0.722,-0.752 -1.339,-1.078 L -30.7,7.338 c -0.822,0.265 -2.067,0.783 -2.588,1.305 -0.507,0.506 -0.658,1.191 -0.818,1.916 -0.077,0.341 -0.152,0.67 -0.252,0.972 -0.423,1.271 -2.075,2.314 -2.402,2.51 l -0.199,0.092 c -1.241,0.413 -2.815,1.16 -3.09,1.571 -0.291,0.439 -0.328,1.733 0.445,4.048 0.407,1.221 1.089,1.801 1.88,2.472 0.288,0.244 0.57,0.484 0.829,0.745 0.578,0.576 2.164,0.94 3.843,1.326 0.511,0.117 1.046,0.24 1.595,0.378 2.279,0.568 4.02,0.024 4.032,0.021 l 4.021,-0.681 4.133,-1.273 4.574,-2.134 2.135,-3.665 1.907,-2.306 2.668,-1.001 2.468,-2.47 3.948,-2.34 2.69,-3.887 0.537,-3.754 z m -0.181,10.328 -4.015,2.342 -2.684,2.684 -2.578,0.968 -1.418,1.699 -2.409,4.134 -5.202,2.427 -4.393,1.362 -4,0.674 c -0.443,0.13 -2.474,0.64 -5.061,-0.005 -0.537,-0.134 -1.059,-0.254 -1.559,-0.369 -2.137,-0.491 -3.825,-0.879 -4.809,-1.861 -0.222,-0.223 -0.463,-0.426 -0.709,-0.635 -0.846,-0.719 -1.9,-1.613 -2.483,-3.363 -0.901,-2.699 -0.973,-4.647 -0.212,-5.788 0.75,-1.127 3.13,-2.024 4.011,-2.325 0.621,-0.392 1.327,-1.015 1.447,-1.374 0.08,-0.239 0.136,-0.501 0.195,-0.772 0.196,-0.881 0.439,-1.978 1.358,-2.897 1.135,-1.135 3.452,-1.82 3.712,-1.894 l 0.268,-0.076 3.877,1.057 0.183,0.071 c 0.592,0.295 2.521,1.374 2.521,2.861 0,0.128 -0.005,0.266 -0.009,0.411 -0.04,1.071 0.014,1.76 1.095,2.3 l 1.757,0.879 h 0.987 c -0.097,-0.703 -0.281,-1.313 -0.466,-1.447 -0.147,-0.098 -0.277,-0.18 -0.395,-0.254 -0.821,-0.516 -1.303,-0.877 -1.659,-2.302 -0.056,-0.222 -0.121,-0.463 -0.189,-0.714 -0.381,-1.41 -0.813,-3.009 -0.447,-4.108 l 0.329,-0.985 0.091,-0.197 c 0.214,-0.357 2.148,-3.524 3.949,-4.606 1.028,-0.617 1.352,-0.758 1.844,-0.972 0.317,-0.138 0.725,-0.315 1.503,-0.704 1.73,-0.865 3.563,-3.289 3.582,-3.314 l 0.213,-0.283 4.582,-1.146 3.199,1.201 0.177,0.247 c 0.55,0.768 1.827,2.684 1.827,3.861 v 0.219 l 3.042,0.83 2.938,2.099 -0.778,5.424 z"
             style="fill:#000000;fill-opacity:1;fill-rule:nonzero;stroke:none"
             id="path42" /></g><g
           id="g44"
           transform="translate(330.0405,881.2803)"><path
             d="m 0,0 c -0.24,-3.2 -0.761,-6.041 -1.56,-8.52 0.399,0 0.759,0.019 1.08,0.06 0.319,0.039 0.679,0.061 1.08,0.061 H 17.64 V 0 Z m 11.64,-67.2 c 2.64,0 4.399,0.6 5.28,1.801 0.879,1.199 1.32,2.478 1.32,3.839 0,1.36 -0.441,2.599 -1.32,3.72 -0.881,1.119 -2.64,1.68 -5.28,1.68 H -29.4 c -2.64,0 -4.401,-0.561 -5.28,-1.68 -0.881,-1.121 -1.32,-2.36 -1.32,-3.72 0,-1.361 0.439,-2.64 1.32,-3.839 0.879,-1.201 2.64,-1.801 5.28,-1.801 z M -35.76,-84 c -4.16,0 -7.782,0.561 -10.86,1.68 -3.081,1.122 -5.64,2.681 -7.68,4.68 -2.04,2 -3.561,4.36 -4.56,7.08 -1.001,2.719 -1.5,5.719 -1.5,9 0,3.199 0.499,6.18 1.5,8.94 0.999,2.76 2.52,5.16 4.56,7.2 2.04,2.04 4.599,3.64 7.68,4.8 3.078,1.159 6.7,1.74 10.86,1.74 H 18 c 4.08,0 7.659,-0.56 10.74,-1.68 3.079,-1.121 5.64,-2.7 7.68,-4.74 2.04,-2.04 3.58,-4.44 4.62,-7.2 1.039,-2.76 1.56,-5.78 1.56,-9.06 0,-3.281 -0.521,-6.3 -1.56,-9.06 -1.04,-2.76 -2.58,-5.139 -4.62,-7.14 -2.04,-1.999 -4.601,-3.54 -7.68,-4.62 C 25.659,-83.46 22.08,-84 18,-84 Z m -18.36,69.36 c 4.399,-0.24 8.52,-0.101 12.36,0.42 3.84,0.52 7.14,1.44 9.9,2.76 2.76,1.32 4.939,3.12 6.54,5.4 1.599,2.28 2.4,5.059 2.4,8.34 v 1.56 c 0,1.759 -0.921,2.64 -2.76,2.64 H -52.8 c -1.761,0 -3.261,0.259 -4.5,0.78 -1.242,0.519 -2.261,1.219 -3.06,2.1 -0.801,0.879 -1.38,1.879 -1.74,3 -0.36,1.119 -0.54,2.28 -0.54,3.48 0,1.2 0.18,2.359 0.54,3.48 0.36,1.119 0.939,2.118 1.74,3 0.799,0.879 1.818,1.578 3.06,2.1 1.239,0.519 2.739,0.78 4.5,0.78 h 36 c 4.8,0 8.439,-0.72 10.92,-2.16 2.479,-1.439 4.159,-3.6 5.04,-6.479 0.319,0.078 0.798,0.119 1.44,0.119 h 17.04 v 0.36 c 0,3.84 1.179,6.739 3.54,8.7 2.359,1.959 5.1,2.94 8.22,2.94 1.519,0 3,-0.26 4.44,-0.78 1.44,-0.521 2.719,-1.26 3.84,-2.22 1.119,-0.96 2.019,-2.159 2.7,-3.6 0.679,-1.44 1.02,-3.12 1.02,-5.04 V -35.04 H 17.64 v 9.96 H 0.6 c -4.481,0 -7.241,1.72 -8.28,5.16 -4.961,-5.76 -11.661,-9.761 -20.1,-12 -8.441,-2.24 -17.66,-2.88 -27.66,-1.92 -2.721,0.24 -5,1.339 -6.84,3.3 -1.841,1.96 -2.64,4.539 -2.4,7.74 0.24,2.799 1.339,4.9 3.3,6.3 1.96,1.398 4.38,2.02 7.26,1.86"
             style="fill:#000000;fill-opacity:1;fill-rule:nonzero;stroke:none"
             id="path46" /></g><g
           id="g48"
           transform="translate(464.4404,898.0801)"><path
             d="m 0,0 c 0,3.919 1.18,6.88 3.54,8.88 2.359,1.999 5.14,3 8.34,3 3.12,0 5.88,-1.02 8.28,-3.06 2.4,-2.04 3.6,-4.98 3.6,-8.82 v -9.84 h 3.72 c 1.839,0 3.36,-0.32 4.56,-0.96 1.2,-0.641 2.16,-1.439 2.88,-2.399 0.72,-0.961 1.24,-2.062 1.56,-3.301 0.319,-1.241 0.48,-2.46 0.48,-3.66 0,-1.199 -0.161,-2.42 -0.48,-3.659 -0.32,-1.242 -0.84,-2.362 -1.56,-3.361 -0.72,-1.001 -1.701,-1.799 -2.94,-2.4 -1.241,-0.6 -2.741,-0.899 -4.5,-0.899 h -3.72 v -20.76 H 0 Z m -50.4,-77.64 c 0,-1.52 0.48,-3.02 1.44,-4.5 0.96,-1.481 2.76,-2.219 5.4,-2.219 h 38.04 c 2.64,0 4.44,0.738 5.4,2.219 0.96,1.48 1.44,2.98 1.44,4.5 0,1.519 -0.48,3.019 -1.44,4.5 -0.96,1.48 -2.76,2.22 -5.4,2.22 h -38.04 c -2.64,0 -4.44,-0.74 -5.4,-2.22 -0.96,-1.481 -1.44,-2.981 -1.44,-4.5 m -24.36,0 c 0,3.199 0.519,6.241 1.56,9.12 1.039,2.88 2.58,5.379 4.62,7.5 2.04,2.119 4.62,3.799 7.74,5.041 3.12,1.239 6.759,1.859 10.92,1.859 H 0.84 c 4.08,0 7.68,-0.6 10.8,-1.8 3.12,-1.2 5.719,-2.861 7.8,-4.979 2.08,-2.122 3.64,-4.621 4.68,-7.5 1.039,-2.88 1.56,-5.961 1.56,-9.241 0,-3.281 -0.521,-6.36 -1.56,-9.24 -1.04,-2.88 -2.6,-5.379 -4.68,-7.5 -2.081,-2.118 -4.68,-3.78 -7.8,-4.979 -3.12,-1.201 -6.72,-1.801 -10.8,-1.801 h -50.76 c -4.161,0 -7.8,0.621 -10.92,1.86 -3.12,1.241 -5.7,2.921 -7.74,5.04 -2.04,2.121 -3.581,4.6 -4.62,7.441 -1.041,2.839 -1.56,5.898 -1.56,9.179 m -1.32,46.201 c 6.24,1.758 10.879,5.058 13.92,9.899 3.039,4.84 4.56,11.62 4.56,20.341 v 0.72 c 0,1.919 0.339,3.579 1.02,4.979 0.679,1.399 1.6,2.56 2.76,3.48 1.159,0.919 2.479,1.6 3.96,2.041 1.48,0.438 3.019,0.66 4.62,0.66 3.12,-0.081 5.82,-1.062 8.1,-2.941 2.28,-1.881 3.42,-4.62 3.42,-8.219 v -0.72 c 0,-1.921 -0.06,-3.762 -0.18,-5.521 -0.12,-1.76 -0.341,-3.479 -0.66,-5.16 4.159,-0.56 7.959,-1.68 11.4,-3.359 3.439,-1.681 6.34,-4.021 8.7,-7.021 2.359,-3 4.159,-6.66 5.4,-10.979 1.24,-4.321 1.74,-9.402 1.5,-15.24 h -23.16 c 0.4,5.199 -0.24,9.338 -1.92,12.419 -1.68,3.08 -4.32,5.02 -7.92,5.821 -3.44,-6.162 -7.721,-10.942 -12.84,-14.341 -5.121,-3.4 -10.52,-5.42 -16.2,-6.06 -3.12,-0.32 -5.801,0.259 -8.04,1.741 -2.24,1.479 -3.6,3.258 -4.08,5.339 -0.801,2.719 -0.66,5.259 0.42,7.621 1.08,2.358 2.82,3.858 5.22,4.5"
             style="fill:#000000;fill-opacity:1;fill-rule:nonzero;stroke:none"
             id="path50" /></g><g
           id="g52"
           transform="translate(584.4404,898.0801)"><path
             d="m 0,0 c 0,3.919 1.18,6.88 3.54,8.88 2.359,1.999 5.14,3 8.34,3 3.12,0 5.881,-1.02 8.28,-3.06 C 22.561,6.78 23.761,3.84 23.761,0 v -8.279 h 3.719 c 1.839,0 3.36,-0.322 4.56,-0.96 1.2,-0.642 2.16,-1.441 2.88,-2.401 0.721,-0.96 1.24,-2.06 1.56,-3.299 0.319,-1.242 0.48,-2.46 0.48,-3.661 0,-1.2 -0.161,-2.421 -0.48,-3.66 -0.32,-1.241 -0.839,-2.36 -1.56,-3.36 -0.72,-1.001 -1.7,-1.8 -2.94,-2.4 -1.241,-0.6 -2.741,-0.9 -4.5,-0.9 H 23.761 V -48.96 L 0,-48.96 Z m -50.399,-80.64 c 0,-1.44 0.179,-2.339 0.54,-2.7 0.359,-0.359 1.139,-0.54 2.339,-0.54 H 0.84 v 10.681 c 0,1.359 -0.2,2.22 -0.6,2.579 -0.401,0.36 -1.2,0.54 -2.4,0.54 h -45.36 c -1.2,0 -1.98,-0.18 -2.339,-0.54 -0.361,-0.359 -0.54,-1.22 -0.54,-2.579 z m -6.481,-20.16 c -3.599,0 -6.521,0.3 -8.76,0.901 -2.24,0.599 -3.98,1.6 -5.219,3 -1.242,1.4 -2.082,3.26 -2.521,5.58 -0.44,2.319 -0.66,5.238 -0.66,8.759 v 11.04 c 0,3.439 0.22,6.339 0.66,8.701 0.439,2.358 1.279,4.239 2.521,5.639 1.239,1.399 2.979,2.401 5.219,3 2.239,0.6 5.161,0.901 8.76,0.901 h 64.2 c 3.6,0 6.52,-0.301 8.76,-0.901 2.239,-0.599 3.979,-1.601 5.221,-3 1.239,-1.4 2.079,-3.281 2.519,-5.639 0.439,-2.362 0.66,-5.262 0.66,-8.701 v -29.28 z m -4.559,55.2 c -5.76,0 -10.041,1.18 -12.84,3.54 -2.802,2.359 -4.2,6.459 -4.2,12.3 v 27 c 0,4.08 1.139,7.039 3.419,8.88 2.281,1.84 5.1,2.76 8.46,2.76 3.361,0 6.16,-0.92 8.401,-2.76 2.238,-1.841 3.359,-4.8 3.359,-8.88 v -20.88 c 0,-1.361 0.199,-2.219 0.601,-2.58 0.399,-0.36 1.278,-0.54 2.639,-0.54 h 34.44 c 3.68,0 6.259,-0.941 7.74,-2.82 1.48,-1.88 2.221,-4.101 2.221,-6.659 0,-2.562 -0.762,-4.761 -2.28,-6.601 -1.521,-1.841 -4.081,-2.76 -7.681,-2.76 z"
             style="fill:#000000;fill-opacity:1;fill-rule:nonzero;stroke:none"
             id="path54" /></g><g
           id="g56"
           transform="translate(717.2803,906.1201)"><path
             d="m 0,0 c 1.681,0 3.12,-0.32 4.32,-0.96 1.201,-0.641 2.16,-1.439 2.88,-2.399 0.721,-0.96 1.239,-2.04 1.561,-3.241 0.318,-1.2 0.479,-2.36 0.479,-3.48 0,-1.121 -0.161,-2.279 -0.479,-3.48 -0.322,-1.2 -0.862,-2.28 -1.62,-3.24 -0.762,-0.96 -1.722,-1.74 -2.88,-2.34 C 3.1,-19.739 1.681,-20.04 0,-20.04 h -60.72 c -1.28,0 -2.16,-0.221 -2.639,-0.66 -0.481,-0.441 -0.72,-1.301 -0.72,-2.579 V -40.68 c 0,-1.28 0.239,-2.16 0.72,-2.639 0.479,-0.481 1.359,-0.721 2.639,-0.721 H 1.921 c 1.68,0 3.119,-0.32 4.319,-0.96 1.2,-0.641 2.16,-1.439 2.88,-2.399 0.721,-0.96 1.261,-2.022 1.62,-3.181 0.361,-1.16 0.54,-2.3 0.54,-3.42 0,-1.121 -0.179,-2.279 -0.54,-3.479 -0.359,-1.201 -0.92,-2.281 -1.679,-3.241 -0.762,-0.96 -1.722,-1.74 -2.88,-2.34 -1.161,-0.6 -2.58,-0.9 -4.26,-0.9 H -26.52 V -87 H 7.32 c 1.84,0 3.4,-0.281 4.68,-0.84 1.279,-0.56 2.32,-1.301 3.12,-2.22 0.799,-0.92 1.38,-1.961 1.74,-3.12 0.361,-1.161 0.54,-2.34 0.54,-3.54 0,-2.48 -0.78,-4.719 -2.339,-6.719 -1.561,-1.999 -4.14,-3 -7.741,-3 h -92.16 c -3.599,0 -6.18,1.001 -7.739,3 -1.561,2 -2.341,4.239 -2.341,6.719 0,1.2 0.181,2.379 0.54,3.54 0.36,1.159 0.94,2.2 1.74,3.12 0.799,0.919 1.84,1.66 3.12,2.22 1.279,0.559 2.839,0.84 4.68,0.84 H -51 v 23.04 h -18.239 c -3.601,0 -6.642,0.34 -9.12,1.021 -2.481,0.678 -4.461,1.758 -5.941,3.239 -1.481,1.479 -2.56,3.421 -3.239,5.82 -0.681,2.401 -1.021,5.359 -1.021,8.88 v 26.04 c 0,3.439 0.34,6.36 1.021,8.76 0.679,2.4 1.758,4.359 3.239,5.881 1.48,1.518 3.46,2.619 5.941,3.299 2.478,0.679 5.519,1.02 9.12,1.02 z"
             style="fill:#000000;fill-opacity:1;fill-rule:nonzero;stroke:none"
             id="path58" /></g></g></g></g></svg>